<?xml version="1.0" encoding="UTF-8" standalone="no"?>
<!DOCTYPE svg PUBLIC "-//W3C//DTD SVG 1.1//EN"
 "http://www.w3.org/Graphics/SVG/1.1/DTD/svg11.dtd">
<!-- Generated by graphviz version 12.2.0 (20241103.1931)
 -->
<!-- Title: G Pages: 1 -->
<svg width="1283pt" height="1753pt"
 viewBox="0.00 0.00 1283.20 1752.75" xmlns="http://www.w3.org/2000/svg" xmlns:xlink="http://www.w3.org/1999/xlink">
<g id="graph0" class="graph" transform="scale(1 1) rotate(0) translate(21.6 1731.15)">
<title>G</title>
<polygon fill="#111111" stroke="none" points="-21.6,21.6 -21.6,-1731.15 1261.6,-1731.15 1261.6,21.6 -21.6,21.6"/>
<!-- App.tsx -->
<g id="node1" class="node">
<title>App.tsx</title>
<path fill="none" stroke="#c6c5fe" d="M250.33,-992.49C250.33,-992.49 205.17,-992.49 205.17,-992.49 201.21,-992.49 197.25,-988.53 197.25,-984.57 197.25,-984.57 197.25,-976.66 197.25,-976.66 197.25,-972.7 201.21,-968.74 205.17,-968.74 205.17,-968.74 250.33,-968.74 250.33,-968.74 254.29,-968.74 258.25,-972.7 258.25,-976.66 258.25,-976.66 258.25,-984.57 258.25,-984.57 258.25,-988.53 254.29,-992.49 250.33,-992.49"/>
<text text-anchor="middle" x="227.75" y="-975.19" font-family="Arial" font-size="14.00" fill="#c6c5fe">App.tsx</text>
</g>
<!-- lib/supabase.ts -->
<g id="node2" class="node">
<title>lib/supabase.ts</title>
<path fill="none" stroke="#cfffac" d="M1232.08,-925.49C1232.08,-925.49 1141.92,-925.49 1141.92,-925.49 1137.96,-925.49 1134,-921.53 1134,-917.57 1134,-917.57 1134,-909.66 1134,-909.66 1134,-905.7 1137.96,-901.74 1141.92,-901.74 1141.92,-901.74 1232.08,-901.74 1232.08,-901.74 1236.04,-901.74 1240,-905.7 1240,-909.66 1240,-909.66 1240,-917.57 1240,-917.57 1240,-921.53 1236.04,-925.49 1232.08,-925.49"/>
<text text-anchor="middle" x="1187" y="-908.19" font-family="Arial" font-size="14.00" fill="#cfffac">lib/supabase.ts</text>
</g>
<!-- App.tsx&#45;&gt;lib/supabase.ts -->
<g id="edge1" class="edge">
<title>App.tsx&#45;&gt;lib/supabase.ts</title>
<path fill="none" stroke="#757575" d="M258.37,-973.12C306.62,-962.86 402.14,-951.01 455.5,-1001.62 535.68,-1077.65 407.9,-1175.36 491.5,-1247.62 540.09,-1289.61 716.37,-1251.04 780.5,-1247.62 922.22,-1240.05 989.1,-1304.61 1098,-1213.62 1141.44,-1177.32 1172.51,-1000.99 1182.53,-936.93"/>
<polygon fill="#757575" stroke="#757575" points="1185.97,-937.6 1184.03,-927.19 1179.05,-936.54 1185.97,-937.6"/>
</g>
<!-- navigation/navigators/TabNavigatorAdmin.tsx -->
<g id="node3" class="node">
<title>navigation/navigators/TabNavigatorAdmin.tsx</title>
<path fill="none" stroke="#c6c5fe" d="M771.46,-560.49C771.46,-560.49 500.54,-560.49 500.54,-560.49 496.58,-560.49 492.62,-556.53 492.62,-552.57 492.62,-552.57 492.62,-544.66 492.62,-544.66 492.62,-540.7 496.58,-536.74 500.54,-536.74 500.54,-536.74 771.46,-536.74 771.46,-536.74 775.42,-536.74 779.38,-540.7 779.38,-544.66 779.38,-544.66 779.38,-552.57 779.38,-552.57 779.38,-556.53 775.42,-560.49 771.46,-560.49"/>
<text text-anchor="middle" x="636" y="-543.19" font-family="Arial" font-size="14.00" fill="#c6c5fe">navigation/navigators/TabNavigatorAdmin.tsx</text>
</g>
<!-- App.tsx&#45;&gt;navigation/navigators/TabNavigatorAdmin.tsx -->
<g id="edge2" class="edge">
<title>App.tsx&#45;&gt;navigation/navigators/TabNavigatorAdmin.tsx</title>
<path fill="none" stroke="#757575" d="M232.58,-968.43C250.83,-912.57 334.65,-679.14 491.5,-574.62 496.9,-571.02 502.65,-567.88 508.64,-565.14"/>
<polygon fill="#757575" stroke="#757575" points="509.6,-568.53 517.52,-561.49 506.94,-562.06 509.6,-568.53"/>
</g>
<!-- navigation/navigators/TabNavigatorLender.tsx -->
<g id="node4" class="node">
<title>navigation/navigators/TabNavigatorLender.tsx</title>
<path fill="none" stroke="#c6c5fe" d="M772.58,-640.49C772.58,-640.49 499.42,-640.49 499.42,-640.49 495.46,-640.49 491.5,-636.53 491.5,-632.57 491.5,-632.57 491.5,-624.66 491.5,-624.66 491.5,-620.7 495.46,-616.74 499.42,-616.74 499.42,-616.74 772.58,-616.74 772.58,-616.74 776.54,-616.74 780.5,-620.7 780.5,-624.66 780.5,-624.66 780.5,-632.57 780.5,-632.57 780.5,-636.53 776.54,-640.49 772.58,-640.49"/>
<text text-anchor="middle" x="636" y="-623.19" font-family="Arial" font-size="14.00" fill="#c6c5fe">navigation/navigators/TabNavigatorLender.tsx</text>
</g>
<!-- App.tsx&#45;&gt;navigation/navigators/TabNavigatorLender.tsx -->
<g id="edge3" class="edge">
<title>App.tsx&#45;&gt;navigation/navigators/TabNavigatorLender.tsx</title>
<path fill="none" stroke="#757575" d="M234.26,-968.28C257.26,-918.42 350.99,-730.54 491.5,-649.62 494.03,-648.16 496.62,-646.79 499.27,-645.51"/>
<polygon fill="#757575" stroke="#757575" points="500.57,-648.76 508.35,-641.56 497.78,-642.34 500.57,-648.76"/>
</g>
<!-- navigation/navigators/TabNavigatorRenter.tsx -->
<g id="node5" class="node">
<title>navigation/navigators/TabNavigatorRenter.tsx</title>
<path fill="none" stroke="#c6c5fe" d="M771.83,-682.49C771.83,-682.49 500.17,-682.49 500.17,-682.49 496.21,-682.49 492.25,-678.53 492.25,-674.57 492.25,-674.57 492.25,-666.66 492.25,-666.66 492.25,-662.7 496.21,-658.74 500.17,-658.74 500.17,-658.74 771.83,-658.74 771.83,-658.74 775.79,-658.74 779.75,-662.7 779.75,-666.66 779.75,-666.66 779.75,-674.57 779.75,-674.57 779.75,-678.53 775.79,-682.49 771.83,-682.49"/>
<text text-anchor="middle" x="636" y="-665.19" font-family="Arial" font-size="14.00" fill="#c6c5fe">navigation/navigators/TabNavigatorRenter.tsx</text>
</g>
<!-- App.tsx&#45;&gt;navigation/navigators/TabNavigatorRenter.tsx -->
<g id="edge4" class="edge">
<title>App.tsx&#45;&gt;navigation/navigators/TabNavigatorRenter.tsx</title>
<path fill="none" stroke="#757575" d="M235.91,-968.36C262.85,-923.47 363.12,-767.04 491.5,-696.62 498.6,-692.72 506.16,-689.4 513.96,-686.56"/>
<polygon fill="#757575" stroke="#757575" points="514.9,-689.93 523.29,-683.45 512.69,-683.29 514.9,-689.93"/>
</g>
<!-- screens/admin/CreatePublicSpace.tsx -->
<g id="node6" class="node">
<title>screens/admin/CreatePublicSpace.tsx</title>
<path fill="none" stroke="#c6c5fe" d="M1071.71,-778.49C1071.71,-778.49 842.79,-778.49 842.79,-778.49 838.83,-778.49 834.88,-774.53 834.88,-770.57 834.88,-770.57 834.88,-762.66 834.88,-762.66 834.88,-758.7 838.83,-754.74 842.79,-754.74 842.79,-754.74 1071.71,-754.74 1071.71,-754.74 1075.67,-754.74 1079.62,-758.7 1079.62,-762.66 1079.62,-762.66 1079.62,-770.57 1079.62,-770.57 1079.62,-774.53 1075.67,-778.49 1071.71,-778.49"/>
<text text-anchor="middle" x="957.25" y="-761.19" font-family="Arial" font-size="14.00" fill="#c6c5fe">screens/admin/CreatePublicSpace.tsx</text>
</g>
<!-- App.tsx&#45;&gt;screens/admin/CreatePublicSpace.tsx -->
<g id="edge5" class="edge">
<title>App.tsx&#45;&gt;screens/admin/CreatePublicSpace.tsx</title>
<path fill="none" stroke="#757575" d="M240.46,-968.68C275.04,-934.36 381.16,-835.36 491.5,-796.62 598.71,-758.97 728.27,-753.61 823.34,-756.44"/>
<polygon fill="#757575" stroke="#757575" points="823.13,-759.94 833.24,-756.78 823.36,-752.94 823.13,-759.94"/>
</g>
<!-- screens/admin/LenderPendingSpaces.tsx -->
<g id="node7" class="node">
<title>screens/admin/LenderPendingSpaces.tsx</title>
<path fill="none" stroke="#c6c5fe" d="M760.96,-1238.49C760.96,-1238.49 511.04,-1238.49 511.04,-1238.49 507.08,-1238.49 503.12,-1234.53 503.12,-1230.57 503.12,-1230.57 503.12,-1222.66 503.12,-1222.66 503.12,-1218.7 507.08,-1214.74 511.04,-1214.74 511.04,-1214.74 760.96,-1214.74 760.96,-1214.74 764.92,-1214.74 768.88,-1218.7 768.88,-1222.66 768.88,-1222.66 768.88,-1230.57 768.88,-1230.57 768.88,-1234.53 764.92,-1238.49 760.96,-1238.49"/>
<text text-anchor="middle" x="636" y="-1221.19" font-family="Arial" font-size="14.00" fill="#c6c5fe">screens/admin/LenderPendingSpaces.tsx</text>
</g>
<!-- App.tsx&#45;&gt;screens/admin/LenderPendingSpaces.tsx -->
<g id="edge6" class="edge">
<title>App.tsx&#45;&gt;screens/admin/LenderPendingSpaces.tsx</title>
<path fill="none" stroke="#757575" d="M258.59,-973.21C306.73,-963.23 401.55,-951.94 455.5,-1001.62 523.23,-1063.98 425.45,-1141.48 491.5,-1205.62 492.27,-1206.36 493.06,-1207.09 493.85,-1207.8"/>
<polygon fill="#757575" stroke="#757575" points="491.62,-1210.5 501.69,-1213.8 495.87,-1204.94 491.62,-1210.5"/>
</g>
<!-- screens/admin/ManageLenderSpaces.tsx -->
<g id="node8" class="node">
<title>screens/admin/ManageLenderSpaces.tsx</title>
<path fill="none" stroke="#c6c5fe" d="M760.96,-1196.49C760.96,-1196.49 511.04,-1196.49 511.04,-1196.49 507.08,-1196.49 503.12,-1192.53 503.12,-1188.57 503.12,-1188.57 503.12,-1180.66 503.12,-1180.66 503.12,-1176.7 507.08,-1172.74 511.04,-1172.74 511.04,-1172.74 760.96,-1172.74 760.96,-1172.74 764.92,-1172.74 768.88,-1176.7 768.88,-1180.66 768.88,-1180.66 768.88,-1188.57 768.88,-1188.57 768.88,-1192.53 764.92,-1196.49 760.96,-1196.49"/>
<text text-anchor="middle" x="636" y="-1179.19" font-family="Arial" font-size="14.00" fill="#c6c5fe">screens/admin/ManageLenderSpaces.tsx</text>
</g>
<!-- App.tsx&#45;&gt;screens/admin/ManageLenderSpaces.tsx -->
<g id="edge7" class="edge">
<title>App.tsx&#45;&gt;screens/admin/ManageLenderSpaces.tsx</title>
<path fill="none" stroke="#757575" d="M258.74,-973.41C306.64,-963.83 400.62,-953.27 455.5,-1001.62 510.84,-1050.37 437.47,-1113.41 491.5,-1163.62 492.27,-1164.33 493.05,-1165.02 493.84,-1165.7"/>
<polygon fill="#757575" stroke="#757575" points="491.43,-1168.27 501.55,-1171.42 495.6,-1162.65 491.43,-1168.27"/>
</g>
<!-- screens/admin/ManagePublicSpaces.tsx -->
<g id="node9" class="node">
<title>screens/admin/ManagePublicSpaces.tsx</title>
<path fill="none" stroke="#c6c5fe" d="M1079.58,-988.49C1079.58,-988.49 834.92,-988.49 834.92,-988.49 830.96,-988.49 827,-984.53 827,-980.57 827,-980.57 827,-972.66 827,-972.66 827,-968.7 830.96,-964.74 834.92,-964.74 834.92,-964.74 1079.58,-964.74 1079.58,-964.74 1083.54,-964.74 1087.5,-968.7 1087.5,-972.66 1087.5,-972.66 1087.5,-980.57 1087.5,-980.57 1087.5,-984.53 1083.54,-988.49 1079.58,-988.49"/>
<text text-anchor="middle" x="957.25" y="-971.19" font-family="Arial" font-size="14.00" fill="#c6c5fe">screens/admin/ManagePublicSpaces.tsx</text>
</g>
<!-- App.tsx&#45;&gt;screens/admin/ManagePublicSpaces.tsx -->
<g id="edge8" class="edge">
<title>App.tsx&#45;&gt;screens/admin/ManagePublicSpaces.tsx</title>
<path fill="none" stroke="#757575" d="M258.63,-980.45C351.57,-979.94 639.88,-978.35 815.44,-977.39"/>
<polygon fill="#757575" stroke="#757575" points="815.34,-980.89 825.32,-977.33 815.3,-973.89 815.34,-980.89"/>
</g>
<!-- screens/admin/ManageUserSuggestions.tsx -->
<g id="node10" class="node">
<title>screens/admin/ManageUserSuggestions.tsx</title>
<path fill="none" stroke="#c6c5fe" d="M1090.08,-946.49C1090.08,-946.49 824.42,-946.49 824.42,-946.49 820.46,-946.49 816.5,-942.53 816.5,-938.57 816.5,-938.57 816.5,-930.66 816.5,-930.66 816.5,-926.7 820.46,-922.74 824.42,-922.74 824.42,-922.74 1090.08,-922.74 1090.08,-922.74 1094.04,-922.74 1098,-926.7 1098,-930.66 1098,-930.66 1098,-938.57 1098,-938.57 1098,-942.53 1094.04,-946.49 1090.08,-946.49"/>
<text text-anchor="middle" x="957.25" y="-929.19" font-family="Arial" font-size="14.00" fill="#c6c5fe">screens/admin/ManageUserSuggestions.tsx</text>
</g>
<!-- App.tsx&#45;&gt;screens/admin/ManageUserSuggestions.tsx -->
<g id="edge9" class="edge">
<title>App.tsx&#45;&gt;screens/admin/ManageUserSuggestions.tsx</title>
<path fill="none" stroke="#757575" d="M258.63,-978.73C349.67,-972.97 628.2,-955.36 804.55,-944.21"/>
<polygon fill="#757575" stroke="#757575" points="804.74,-947.7 814.5,-943.58 804.3,-940.72 804.74,-947.7"/>
</g>
<!-- screens/admin/UserSuggestedSpaces.tsx -->
<g id="node11" class="node">
<title>screens/admin/UserSuggestedSpaces.tsx</title>
<path fill="none" stroke="#c6c5fe" d="M761.71,-1154.49C761.71,-1154.49 510.29,-1154.49 510.29,-1154.49 506.33,-1154.49 502.38,-1150.53 502.38,-1146.57 502.38,-1146.57 502.38,-1138.66 502.38,-1138.66 502.38,-1134.7 506.33,-1130.74 510.29,-1130.74 510.29,-1130.74 761.71,-1130.74 761.71,-1130.74 765.67,-1130.74 769.62,-1134.7 769.62,-1138.66 769.62,-1138.66 769.62,-1146.57 769.62,-1146.57 769.62,-1150.53 765.67,-1154.49 761.71,-1154.49"/>
<text text-anchor="middle" x="636" y="-1137.19" font-family="Arial" font-size="14.00" fill="#c6c5fe">screens/admin/UserSuggestedSpaces.tsx</text>
</g>
<!-- App.tsx&#45;&gt;screens/admin/UserSuggestedSpaces.tsx -->
<g id="edge10" class="edge">
<title>App.tsx&#45;&gt;screens/admin/UserSuggestedSpaces.tsx</title>
<path fill="none" stroke="#757575" d="M258.72,-973.8C306.19,-964.9 399.05,-955.42 455.5,-1001.62 498.59,-1036.88 449.36,-1085.22 491.5,-1121.62 492.45,-1122.44 493.42,-1123.24 494.41,-1124.01"/>
<polygon fill="#757575" stroke="#757575" points="492.23,-1126.76 502.46,-1129.52 496.18,-1120.98 492.23,-1126.76"/>
</g>
<!-- screens/auth/Auth.tsx -->
<g id="node12" class="node">
<title>screens/auth/Auth.tsx</title>
<path fill="none" stroke="#c6c5fe" d="M700.96,-442.49C700.96,-442.49 571.04,-442.49 571.04,-442.49 567.08,-442.49 563.12,-438.53 563.12,-434.57 563.12,-434.57 563.12,-426.66 563.12,-426.66 563.12,-422.7 567.08,-418.74 571.04,-418.74 571.04,-418.74 700.96,-418.74 700.96,-418.74 704.92,-418.74 708.88,-422.7 708.88,-426.66 708.88,-426.66 708.88,-434.57 708.88,-434.57 708.88,-438.53 704.92,-442.49 700.96,-442.49"/>
<text text-anchor="middle" x="636" y="-425.19" font-family="Arial" font-size="14.00" fill="#c6c5fe">screens/auth/Auth.tsx</text>
</g>
<!-- App.tsx&#45;&gt;screens/auth/Auth.tsx -->
<g id="edge11" class="edge">
<title>App.tsx&#45;&gt;screens/auth/Auth.tsx</title>
<path fill="none" stroke="#757575" d="M236.74,-968.29C268.11,-919.47 384.65,-734.31 455.5,-569.62 476.33,-521.2 451.9,-491.4 491.5,-456.62 508.02,-442.1 529.85,-434.44 551.49,-430.66"/>
<polygon fill="#757575" stroke="#757575" points="551.86,-434.14 561.25,-429.24 550.85,-427.21 551.86,-434.14"/>
</g>
<!-- screens/auth/RoleSelection.tsx -->
<g id="node13" class="node">
<title>screens/auth/RoleSelection.tsx</title>
<path fill="none" stroke="#c6c5fe" d="M728.71,-400.49C728.71,-400.49 543.29,-400.49 543.29,-400.49 539.33,-400.49 535.38,-396.53 535.38,-392.57 535.38,-392.57 535.38,-384.66 535.38,-384.66 535.38,-380.7 539.33,-376.74 543.29,-376.74 543.29,-376.74 728.71,-376.74 728.71,-376.74 732.67,-376.74 736.62,-380.7 736.62,-384.66 736.62,-384.66 736.62,-392.57 736.62,-392.57 736.62,-396.53 732.67,-400.49 728.71,-400.49"/>
<text text-anchor="middle" x="636" y="-383.19" font-family="Arial" font-size="14.00" fill="#c6c5fe">screens/auth/RoleSelection.tsx</text>
</g>
<!-- App.tsx&#45;&gt;screens/auth/RoleSelection.tsx -->
<g id="edge12" class="edge">
<title>App.tsx&#45;&gt;screens/auth/RoleSelection.tsx</title>
<path fill="none" stroke="#757575" d="M237.17,-968.46C270.15,-920.29 391.88,-737.23 455.5,-569.62 481.36,-501.47 438.04,-459.16 491.5,-409.62 500.86,-400.94 512.13,-394.88 524.19,-390.74"/>
<polygon fill="#757575" stroke="#757575" points="524.91,-394.18 533.52,-388 522.94,-387.46 524.91,-394.18"/>
</g>
<!-- screens/common/Account.tsx -->
<g id="node14" class="node">
<title>screens/common/Account.tsx</title>
<path fill="none" stroke="#c6c5fe" d="M1046.21,-610.49C1046.21,-610.49 868.29,-610.49 868.29,-610.49 864.33,-610.49 860.38,-606.53 860.38,-602.57 860.38,-602.57 860.38,-594.66 860.38,-594.66 860.38,-590.7 864.33,-586.74 868.29,-586.74 868.29,-586.74 1046.21,-586.74 1046.21,-586.74 1050.17,-586.74 1054.12,-590.7 1054.12,-594.66 1054.12,-594.66 1054.12,-602.57 1054.12,-602.57 1054.12,-606.53 1050.17,-610.49 1046.21,-610.49"/>
<text text-anchor="middle" x="957.25" y="-593.19" font-family="Arial" font-size="14.00" fill="#c6c5fe">screens/common/Account.tsx</text>
</g>
<!-- App.tsx&#45;&gt;screens/common/Account.tsx -->
<g id="edge13" class="edge">
<title>App.tsx&#45;&gt;screens/common/Account.tsx</title>
<path fill="none" stroke="#757575" d="M232.69,-968.49C251.16,-914 334.8,-690.84 491.5,-607.62 551.09,-575.96 731.15,-581.82 848.86,-589.69"/>
<polygon fill="#757575" stroke="#757575" points="848.32,-593.17 858.54,-590.36 848.8,-586.18 848.32,-593.17"/>
</g>
<!-- screens/common/AccountDetails.tsx -->
<g id="node15" class="node">
<title>screens/common/AccountDetails.tsx</title>
<path fill="none" stroke="#c6c5fe" d="M745.58,-1070.49C745.58,-1070.49 526.42,-1070.49 526.42,-1070.49 522.46,-1070.49 518.5,-1066.53 518.5,-1062.57 518.5,-1062.57 518.5,-1054.66 518.5,-1054.66 518.5,-1050.7 522.46,-1046.74 526.42,-1046.74 526.42,-1046.74 745.58,-1046.74 745.58,-1046.74 749.54,-1046.74 753.5,-1050.7 753.5,-1054.66 753.5,-1054.66 753.5,-1062.57 753.5,-1062.57 753.5,-1066.53 749.54,-1070.49 745.58,-1070.49"/>
<text text-anchor="middle" x="636" y="-1053.19" font-family="Arial" font-size="14.00" fill="#c6c5fe">screens/common/AccountDetails.tsx</text>
</g>
<!-- App.tsx&#45;&gt;screens/common/AccountDetails.tsx -->
<g id="edge14" class="edge">
<title>App.tsx&#45;&gt;screens/common/AccountDetails.tsx</title>
<path fill="none" stroke="#757575" d="M258.4,-977.79C303.08,-974.73 389.45,-973.56 455.5,-1001.62 474.93,-1009.87 472.44,-1023.52 491.5,-1032.62 500.22,-1036.77 509.52,-1040.27 519.05,-1043.21"/>
<polygon fill="#757575" stroke="#757575" points="517.84,-1046.5 528.42,-1045.88 519.76,-1039.77 517.84,-1046.5"/>
</g>
<!-- screens/common/HelpAndSupport.tsx -->
<g id="node16" class="node">
<title>screens/common/HelpAndSupport.tsx</title>
<path fill="none" stroke="#cfffac" d="M750.08,-914.49C750.08,-914.49 521.92,-914.49 521.92,-914.49 517.96,-914.49 514,-910.53 514,-906.57 514,-906.57 514,-898.66 514,-898.66 514,-894.7 517.96,-890.74 521.92,-890.74 521.92,-890.74 750.08,-890.74 750.08,-890.74 754.04,-890.74 758,-894.7 758,-898.66 758,-898.66 758,-906.57 758,-906.57 758,-910.53 754.04,-914.49 750.08,-914.49"/>
<text text-anchor="middle" x="636" y="-897.19" font-family="Arial" font-size="14.00" fill="#cfffac">screens/common/HelpAndSupport.tsx</text>
</g>
<!-- App.tsx&#45;&gt;screens/common/HelpAndSupport.tsx -->
<g id="edge15" class="edge">
<title>App.tsx&#45;&gt;screens/common/HelpAndSupport.tsx</title>
<path fill="none" stroke="#757575" d="M258.67,-974.53C307.4,-964.66 406.98,-944.63 491.5,-928.62 511.86,-924.76 533.87,-920.71 554.39,-916.98"/>
<polygon fill="#757575" stroke="#757575" points="554.91,-920.45 564.13,-915.22 553.67,-913.56 554.91,-920.45"/>
</g>
<!-- screens/common/SignOut.tsx -->
<g id="node17" class="node">
<title>screens/common/SignOut.tsx</title>
<path fill="none" stroke="#c6c5fe" d="M725.33,-1687.49C725.33,-1687.49 546.67,-1687.49 546.67,-1687.49 542.71,-1687.49 538.75,-1683.53 538.75,-1679.57 538.75,-1679.57 538.75,-1671.66 538.75,-1671.66 538.75,-1667.7 542.71,-1663.74 546.67,-1663.74 546.67,-1663.74 725.33,-1663.74 725.33,-1663.74 729.29,-1663.74 733.25,-1667.7 733.25,-1671.66 733.25,-1671.66 733.25,-1679.57 733.25,-1679.57 733.25,-1683.53 729.29,-1687.49 725.33,-1687.49"/>
<text text-anchor="middle" x="636" y="-1670.19" font-family="Arial" font-size="14.00" fill="#c6c5fe">screens/common/SignOut.tsx</text>
</g>
<!-- App.tsx&#45;&gt;screens/common/SignOut.tsx -->
<g id="edge16" class="edge">
<title>App.tsx&#45;&gt;screens/common/SignOut.tsx</title>
<path fill="none" stroke="#757575" d="M258.5,-972.68C307.38,-961.64 404.34,-948.52 455.5,-1001.62 556.03,-1105.95 394.5,-1544.99 491.5,-1652.62 501.26,-1663.44 513.92,-1670.55 527.68,-1675.08"/>
<polygon fill="#757575" stroke="#757575" points="526.36,-1678.34 536.93,-1677.64 528.23,-1671.6 526.36,-1678.34"/>
</g>
<!-- screens/common/SupportTicket.tsx -->
<g id="node18" class="node">
<title>screens/common/SupportTicket.tsx</title>
<path fill="none" stroke="#c6c5fe" d="M742.21,-1643.49C742.21,-1643.49 529.79,-1643.49 529.79,-1643.49 525.83,-1643.49 521.88,-1639.53 521.88,-1635.57 521.88,-1635.57 521.88,-1627.66 521.88,-1627.66 521.88,-1623.7 525.83,-1619.74 529.79,-1619.74 529.79,-1619.74 742.21,-1619.74 742.21,-1619.74 746.17,-1619.74 750.12,-1623.7 750.12,-1627.66 750.12,-1627.66 750.12,-1635.57 750.12,-1635.57 750.12,-1639.53 746.17,-1643.49 742.21,-1643.49"/>
<text text-anchor="middle" x="636" y="-1626.19" font-family="Arial" font-size="14.00" fill="#c6c5fe">screens/common/SupportTicket.tsx</text>
</g>
<!-- App.tsx&#45;&gt;screens/common/SupportTicket.tsx -->
<g id="edge17" class="edge">
<title>App.tsx&#45;&gt;screens/common/SupportTicket.tsx</title>
<path fill="none" stroke="#757575" d="M258.48,-972.7C307.32,-961.7 404.23,-948.63 455.5,-1001.62 549.15,-1098.4 401.8,-1506.15 491.5,-1606.62 497.17,-1612.97 503.84,-1618.08 511.14,-1622.18"/>
<polygon fill="#757575" stroke="#757575" points="509.56,-1625.3 520.08,-1626.49 512.59,-1618.99 509.56,-1625.3"/>
</g>
<!-- screens/common/WalletScreen.tsx -->
<g id="node19" class="node">
<title>screens/common/WalletScreen.tsx</title>
<path fill="none" stroke="#c6c5fe" d="M740.71,-1597.49C740.71,-1597.49 531.29,-1597.49 531.29,-1597.49 527.33,-1597.49 523.38,-1593.53 523.38,-1589.57 523.38,-1589.57 523.38,-1581.66 523.38,-1581.66 523.38,-1577.7 527.33,-1573.74 531.29,-1573.74 531.29,-1573.74 740.71,-1573.74 740.71,-1573.74 744.67,-1573.74 748.62,-1577.7 748.62,-1581.66 748.62,-1581.66 748.62,-1589.57 748.62,-1589.57 748.62,-1593.53 744.67,-1597.49 740.71,-1597.49"/>
<text text-anchor="middle" x="636" y="-1580.19" font-family="Arial" font-size="14.00" fill="#c6c5fe">screens/common/WalletScreen.tsx</text>
</g>
<!-- App.tsx&#45;&gt;screens/common/WalletScreen.tsx -->
<g id="edge18" class="edge">
<title>App.tsx&#45;&gt;screens/common/WalletScreen.tsx</title>
<path fill="none" stroke="#757575" d="M258.44,-972.73C307.24,-961.77 404.09,-948.76 455.5,-1001.62 541.68,-1090.2 410.18,-1463.54 491.5,-1556.62 497.62,-1563.62 504.93,-1569.22 512.96,-1573.67"/>
<polygon fill="#757575" stroke="#757575" points="511.18,-1576.69 521.71,-1577.88 514.22,-1570.39 511.18,-1576.69"/>
</g>
<!-- screens/lender/CreateSpot.tsx -->
<g id="node20" class="node">
<title>screens/lender/CreateSpot.tsx</title>
<path fill="none" stroke="#c6c5fe" d="M726.83,-1318.49C726.83,-1318.49 545.17,-1318.49 545.17,-1318.49 541.21,-1318.49 537.25,-1314.53 537.25,-1310.57 537.25,-1310.57 537.25,-1302.66 537.25,-1302.66 537.25,-1298.7 541.21,-1294.74 545.17,-1294.74 545.17,-1294.74 726.83,-1294.74 726.83,-1294.74 730.79,-1294.74 734.75,-1298.7 734.75,-1302.66 734.75,-1302.66 734.75,-1310.57 734.75,-1310.57 734.75,-1314.53 730.79,-1318.49 726.83,-1318.49"/>
<text text-anchor="middle" x="636" y="-1301.19" font-family="Arial" font-size="14.00" fill="#c6c5fe">screens/lender/CreateSpot.tsx</text>
</g>
<!-- App.tsx&#45;&gt;screens/lender/CreateSpot.tsx -->
<g id="edge19" class="edge">
<title>App.tsx&#45;&gt;screens/lender/CreateSpot.tsx</title>
<path fill="none" stroke="#757575" d="M258.47,-973.02C306.86,-962.61 402.58,-950.56 455.5,-1001.62 545.48,-1088.42 405.37,-1189.99 491.5,-1280.62 501.06,-1290.68 513.12,-1297.63 526.15,-1302.33"/>
<polygon fill="#757575" stroke="#757575" points="524.75,-1305.56 535.34,-1305.18 526.83,-1298.87 524.75,-1305.56"/>
</g>
<!-- screens/lender/ParkingSpotDetails.tsx -->
<g id="node21" class="node">
<title>screens/lender/ParkingSpotDetails.tsx</title>
<path fill="none" stroke="#c6c5fe" d="M1071.33,-904.49C1071.33,-904.49 843.17,-904.49 843.17,-904.49 839.21,-904.49 835.25,-900.53 835.25,-896.57 835.25,-896.57 835.25,-888.66 835.25,-888.66 835.25,-884.7 839.21,-880.74 843.17,-880.74 843.17,-880.74 1071.33,-880.74 1071.33,-880.74 1075.29,-880.74 1079.25,-884.7 1079.25,-888.66 1079.25,-888.66 1079.25,-896.57 1079.25,-896.57 1079.25,-900.53 1075.29,-904.49 1071.33,-904.49"/>
<text text-anchor="middle" x="957.25" y="-887.19" font-family="Arial" font-size="14.00" fill="#c6c5fe">screens/lender/ParkingSpotDetails.tsx</text>
</g>
<!-- App.tsx&#45;&gt;screens/lender/ParkingSpotDetails.tsx -->
<g id="edge20" class="edge">
<title>App.tsx&#45;&gt;screens/lender/ParkingSpotDetails.tsx</title>
<path fill="none" stroke="#757575" d="M252.54,-968.29C297.66,-945.69 399.42,-898.39 491.5,-881.62 617.01,-858.75 764.72,-868.32 859.36,-878.98"/>
<polygon fill="#757575" stroke="#757575" points="858.8,-882.44 869.13,-880.11 859.6,-875.49 858.8,-882.44"/>
</g>
<!-- screens/lender/PendingSpots.tsx -->
<g id="node22" class="node">
<title>screens/lender/PendingSpots.tsx</title>
<path fill="none" stroke="#c6c5fe" d="M734.71,-1547.49C734.71,-1547.49 537.29,-1547.49 537.29,-1547.49 533.33,-1547.49 529.38,-1543.53 529.38,-1539.57 529.38,-1539.57 529.38,-1531.66 529.38,-1531.66 529.38,-1527.7 533.33,-1523.74 537.29,-1523.74 537.29,-1523.74 734.71,-1523.74 734.71,-1523.74 738.67,-1523.74 742.62,-1527.7 742.62,-1531.66 742.62,-1531.66 742.62,-1539.57 742.62,-1539.57 742.62,-1543.53 738.67,-1547.49 734.71,-1547.49"/>
<text text-anchor="middle" x="636" y="-1530.19" font-family="Arial" font-size="14.00" fill="#c6c5fe">screens/lender/PendingSpots.tsx</text>
</g>
<!-- App.tsx&#45;&gt;screens/lender/PendingSpots.tsx -->
<g id="edge21" class="edge">
<title>App.tsx&#45;&gt;screens/lender/PendingSpots.tsx</title>
<path fill="none" stroke="#757575" d="M258.4,-972.78C307.13,-961.88 403.88,-948.96 455.5,-1001.62 532.86,-1080.53 420.97,-1412.54 491.5,-1497.62 499.04,-1506.71 508.48,-1513.77 518.91,-1519.22"/>
<polygon fill="#757575" stroke="#757575" points="517.25,-1522.31 527.79,-1523.34 520.19,-1515.96 517.25,-1522.31"/>
</g>
<!-- screens/lender/VerificationStatus.tsx -->
<g id="node23" class="node">
<title>screens/lender/VerificationStatus.tsx</title>
<path fill="none" stroke="#c6c5fe" d="M744.83,-1488.49C744.83,-1488.49 527.17,-1488.49 527.17,-1488.49 523.21,-1488.49 519.25,-1484.53 519.25,-1480.57 519.25,-1480.57 519.25,-1472.66 519.25,-1472.66 519.25,-1468.7 523.21,-1464.74 527.17,-1464.74 527.17,-1464.74 744.83,-1464.74 744.83,-1464.74 748.79,-1464.74 752.75,-1468.7 752.75,-1472.66 752.75,-1472.66 752.75,-1480.57 752.75,-1480.57 752.75,-1484.53 748.79,-1488.49 744.83,-1488.49"/>
<text text-anchor="middle" x="636" y="-1471.19" font-family="Arial" font-size="14.00" fill="#c6c5fe">screens/lender/VerificationStatus.tsx</text>
</g>
<!-- App.tsx&#45;&gt;screens/lender/VerificationStatus.tsx -->
<g id="edge22" class="edge">
<title>App.tsx&#45;&gt;screens/lender/VerificationStatus.tsx</title>
<path fill="none" stroke="#757575" d="M258.72,-972.76C307.46,-962 403.68,-949.44 455.5,-1001.62 521.51,-1068.08 435.17,-1346.77 491.5,-1421.62 505.49,-1440.21 526.61,-1452.52 548.37,-1460.67"/>
<polygon fill="#757575" stroke="#757575" points="547.05,-1463.91 557.65,-1463.85 549.33,-1457.29 547.05,-1463.91"/>
</g>
<!-- screens/map/MapScreen.tsx -->
<g id="node24" class="node">
<title>screens/map/MapScreen.tsx</title>
<path fill="none" stroke="#c6c5fe" d="M1043.58,-736.49C1043.58,-736.49 870.92,-736.49 870.92,-736.49 866.96,-736.49 863,-732.53 863,-728.57 863,-728.57 863,-720.66 863,-720.66 863,-716.7 866.96,-712.74 870.92,-712.74 870.92,-712.74 1043.58,-712.74 1043.58,-712.74 1047.54,-712.74 1051.5,-716.7 1051.5,-720.66 1051.5,-720.66 1051.5,-728.57 1051.5,-728.57 1051.5,-732.53 1047.54,-736.49 1043.58,-736.49"/>
<text text-anchor="middle" x="957.25" y="-719.19" font-family="Arial" font-size="14.00" fill="#c6c5fe">screens/map/MapScreen.tsx</text>
</g>
<!-- App.tsx&#45;&gt;screens/map/MapScreen.tsx -->
<g id="edge23" class="edge">
<title>App.tsx&#45;&gt;screens/map/MapScreen.tsx</title>
<path fill="none" stroke="#757575" d="M237.75,-968.38C268.07,-928.29 371.33,-800.66 491.5,-751.62 607.93,-704.1 754.51,-704.37 851.58,-711.89"/>
<polygon fill="#757575" stroke="#757575" points="851.11,-715.36 861.36,-712.69 851.68,-708.39 851.11,-715.36"/>
</g>
<!-- screens/renter/AddVehicle.tsx -->
<g id="node25" class="node">
<title>screens/renter/AddVehicle.tsx</title>
<path fill="none" stroke="#c6c5fe" d="M1046.58,-820.49C1046.58,-820.49 867.92,-820.49 867.92,-820.49 863.96,-820.49 860,-816.53 860,-812.57 860,-812.57 860,-804.66 860,-804.66 860,-800.7 863.96,-796.74 867.92,-796.74 867.92,-796.74 1046.58,-796.74 1046.58,-796.74 1050.54,-796.74 1054.5,-800.7 1054.5,-804.66 1054.5,-804.66 1054.5,-812.57 1054.5,-812.57 1054.5,-816.53 1050.54,-820.49 1046.58,-820.49"/>
<text text-anchor="middle" x="957.25" y="-803.19" font-family="Arial" font-size="14.00" fill="#c6c5fe">screens/renter/AddVehicle.tsx</text>
</g>
<!-- App.tsx&#45;&gt;screens/renter/AddVehicle.tsx -->
<g id="edge24" class="edge">
<title>App.tsx&#45;&gt;screens/renter/AddVehicle.tsx</title>
<path fill="none" stroke="#757575" d="M244.81,-968.32C284.21,-938.94 389.89,-864.96 491.5,-835.62 610.14,-801.35 752.71,-798.37 848.39,-801.53"/>
<polygon fill="#757575" stroke="#757575" points="848.19,-805.03 858.31,-801.89 848.44,-798.03 848.19,-805.03"/>
</g>
<!-- screens/renter/BookingScreen.tsx -->
<g id="node26" class="node">
<title>screens/renter/BookingScreen.tsx</title>
<path fill="none" stroke="#c6c5fe" d="M1058.58,-240.49C1058.58,-240.49 855.92,-240.49 855.92,-240.49 851.96,-240.49 848,-236.53 848,-232.57 848,-232.57 848,-224.66 848,-224.66 848,-220.7 851.96,-216.74 855.92,-216.74 855.92,-216.74 1058.58,-216.74 1058.58,-216.74 1062.54,-216.74 1066.5,-220.7 1066.5,-224.66 1066.5,-224.66 1066.5,-232.57 1066.5,-232.57 1066.5,-236.53 1062.54,-240.49 1058.58,-240.49"/>
<text text-anchor="middle" x="957.25" y="-223.19" font-family="Arial" font-size="14.00" fill="#c6c5fe">screens/renter/BookingScreen.tsx</text>
</g>
<!-- App.tsx&#45;&gt;screens/renter/BookingScreen.tsx -->
<g id="edge25" class="edge">
<title>App.tsx&#45;&gt;screens/renter/BookingScreen.tsx</title>
<path fill="none" stroke="#757575" d="M234.99,-968.45C270.63,-899.24 448.25,-556.98 491.5,-527.62 598.94,-454.67 688.48,-576.24 780.5,-484.62 855.38,-410.06 741.68,-324.22 816.5,-249.62 822.6,-243.53 829.66,-238.72 837.29,-234.95"/>
<polygon fill="#757575" stroke="#757575" points="838.39,-238.29 846.24,-231.16 835.66,-231.84 838.39,-238.29"/>
</g>
<!-- screens/renter/DocumentUpload.tsx -->
<g id="node27" class="node">
<title>screens/renter/DocumentUpload.tsx</title>
<path fill="none" stroke="#c6c5fe" d="M744.08,-1412.49C744.08,-1412.49 527.92,-1412.49 527.92,-1412.49 523.96,-1412.49 520,-1408.53 520,-1404.57 520,-1404.57 520,-1396.66 520,-1396.66 520,-1392.7 523.96,-1388.74 527.92,-1388.74 527.92,-1388.74 744.08,-1388.74 744.08,-1388.74 748.04,-1388.74 752,-1392.7 752,-1396.66 752,-1396.66 752,-1404.57 752,-1404.57 752,-1408.53 748.04,-1412.49 744.08,-1412.49"/>
<text text-anchor="middle" x="636" y="-1395.19" font-family="Arial" font-size="14.00" fill="#c6c5fe">screens/renter/DocumentUpload.tsx</text>
</g>
<!-- App.tsx&#45;&gt;screens/renter/DocumentUpload.tsx -->
<g id="edge26" class="edge">
<title>App.tsx&#45;&gt;screens/renter/DocumentUpload.tsx</title>
<path fill="none" stroke="#757575" d="M258.66,-972.82C307.32,-962.14 403.42,-949.71 455.5,-1001.62 514.8,-1060.71 434.41,-1315.38 491.5,-1376.62 496.82,-1382.33 502.95,-1387.01 509.62,-1390.82"/>
<polygon fill="#757575" stroke="#757575" points="507.86,-1393.86 518.37,-1395.15 510.96,-1387.58 507.86,-1393.86"/>
</g>
<!-- screens/renter/PreviousBookings.tsx -->
<g id="node28" class="node">
<title>screens/renter/PreviousBookings.tsx</title>
<path fill="none" stroke="#c6c5fe" d="M745.58,-1367.49C745.58,-1367.49 526.42,-1367.49 526.42,-1367.49 522.46,-1367.49 518.5,-1363.53 518.5,-1359.57 518.5,-1359.57 518.5,-1351.66 518.5,-1351.66 518.5,-1347.7 522.46,-1343.74 526.42,-1343.74 526.42,-1343.74 745.58,-1343.74 745.58,-1343.74 749.54,-1343.74 753.5,-1347.7 753.5,-1351.66 753.5,-1351.66 753.5,-1359.57 753.5,-1359.57 753.5,-1363.53 749.54,-1367.49 745.58,-1367.49"/>
<text text-anchor="middle" x="636" y="-1350.19" font-family="Arial" font-size="14.00" fill="#c6c5fe">screens/renter/PreviousBookings.tsx</text>
</g>
<!-- App.tsx&#45;&gt;screens/renter/PreviousBookings.tsx -->
<g id="edge27" class="edge">
<title>App.tsx&#45;&gt;screens/renter/PreviousBookings.tsx</title>
<path fill="none" stroke="#757575" d="M258.57,-972.91C307.11,-962.35 403.05,-950.08 455.5,-1001.62 559.48,-1103.78 392.78,-1220.37 491.5,-1327.62 496.46,-1333.01 502.13,-1337.54 508.29,-1341.34"/>
<polygon fill="#757575" stroke="#757575" points="506.52,-1344.36 516.99,-1346 509.83,-1338.19 506.52,-1344.36"/>
</g>
<!-- screens/renter/RenterHomeScreen.tsx -->
<g id="node29" class="node">
<title>screens/renter/RenterHomeScreen.tsx</title>
<path fill="none" stroke="#c6c5fe" d="M1072.83,-1030.49C1072.83,-1030.49 841.67,-1030.49 841.67,-1030.49 837.71,-1030.49 833.75,-1026.53 833.75,-1022.57 833.75,-1022.57 833.75,-1014.66 833.75,-1014.66 833.75,-1010.7 837.71,-1006.74 841.67,-1006.74 841.67,-1006.74 1072.83,-1006.74 1072.83,-1006.74 1076.79,-1006.74 1080.75,-1010.7 1080.75,-1014.66 1080.75,-1014.66 1080.75,-1022.57 1080.75,-1022.57 1080.75,-1026.53 1076.79,-1030.49 1072.83,-1030.49"/>
<text text-anchor="middle" x="957.25" y="-1013.19" font-family="Arial" font-size="14.00" fill="#c6c5fe">screens/renter/RenterHomeScreen.tsx</text>
</g>
<!-- App.tsx&#45;&gt;screens/renter/RenterHomeScreen.tsx -->
<g id="edge28" class="edge">
<title>App.tsx&#45;&gt;screens/renter/RenterHomeScreen.tsx</title>
<path fill="none" stroke="#757575" d="M258.63,-982.18C352.75,-987.09 647.22,-1002.47 822.05,-1011.61"/>
<polygon fill="#757575" stroke="#757575" points="821.71,-1015.09 831.88,-1012.12 822.08,-1008.1 821.71,-1015.09"/>
</g>
<!-- screens/renter/SuggestParkingSpace.tsx -->
<g id="node30" class="node">
<title>screens/renter/SuggestParkingSpace.tsx</title>
<path fill="none" stroke="#c6c5fe" d="M1079.58,-862.49C1079.58,-862.49 834.92,-862.49 834.92,-862.49 830.96,-862.49 827,-858.53 827,-854.57 827,-854.57 827,-846.66 827,-846.66 827,-842.7 830.96,-838.74 834.92,-838.74 834.92,-838.74 1079.58,-838.74 1079.58,-838.74 1083.54,-838.74 1087.5,-842.7 1087.5,-846.66 1087.5,-846.66 1087.5,-854.57 1087.5,-854.57 1087.5,-858.53 1083.54,-862.49 1079.58,-862.49"/>
<text text-anchor="middle" x="957.25" y="-845.19" font-family="Arial" font-size="14.00" fill="#c6c5fe">screens/renter/SuggestParkingSpace.tsx</text>
</g>
<!-- App.tsx&#45;&gt;screens/renter/SuggestParkingSpace.tsx -->
<g id="edge29" class="edge">
<title>App.tsx&#45;&gt;screens/renter/SuggestParkingSpace.tsx</title>
<path fill="none" stroke="#757575" d="M248.9,-968.31C291.69,-942.95 395.57,-885.41 491.5,-863.62 598.23,-839.36 722.28,-837.15 815.36,-840.44"/>
<polygon fill="#757575" stroke="#757575" points="815.2,-843.94 825.33,-840.82 815.47,-836.94 815.2,-843.94"/>
</g>
<!-- screens/renter/UpcomingBookings.tsx -->
<g id="node31" class="node">
<title>screens/renter/UpcomingBookings.tsx</title>
<path fill="none" stroke="#c6c5fe" d="M750.08,-1112.49C750.08,-1112.49 521.92,-1112.49 521.92,-1112.49 517.96,-1112.49 514,-1108.53 514,-1104.57 514,-1104.57 514,-1096.66 514,-1096.66 514,-1092.7 517.96,-1088.74 521.92,-1088.74 521.92,-1088.74 750.08,-1088.74 750.08,-1088.74 754.04,-1088.74 758,-1092.7 758,-1096.66 758,-1096.66 758,-1104.57 758,-1104.57 758,-1108.53 754.04,-1112.49 750.08,-1112.49"/>
<text text-anchor="middle" x="636" y="-1095.19" font-family="Arial" font-size="14.00" fill="#c6c5fe">screens/renter/UpcomingBookings.tsx</text>
</g>
<!-- App.tsx&#45;&gt;screens/renter/UpcomingBookings.tsx -->
<g id="edge30" class="edge">
<title>App.tsx&#45;&gt;screens/renter/UpcomingBookings.tsx</title>
<path fill="none" stroke="#757575" d="M258.37,-974.7C304.95,-967.15 396.1,-959.62 455.5,-1001.62 486.68,-1023.66 460.92,-1056.76 491.5,-1079.62 495.3,-1082.46 499.32,-1084.99 503.5,-1087.25"/>
<polygon fill="#757575" stroke="#757575" points="501.64,-1090.24 512.17,-1091.39 504.66,-1083.93 501.64,-1090.24"/>
</g>
<!-- types/types.ts -->
<g id="node32" class="node">
<title>types/types.ts</title>
<path fill="none" stroke="#cfffac" d="M1228.33,-366.49C1228.33,-366.49 1145.67,-366.49 1145.67,-366.49 1141.71,-366.49 1137.75,-362.53 1137.75,-358.57 1137.75,-358.57 1137.75,-350.66 1137.75,-350.66 1137.75,-346.7 1141.71,-342.74 1145.67,-342.74 1145.67,-342.74 1228.33,-342.74 1228.33,-342.74 1232.29,-342.74 1236.25,-346.7 1236.25,-350.66 1236.25,-350.66 1236.25,-358.57 1236.25,-358.57 1236.25,-362.53 1232.29,-366.49 1228.33,-366.49"/>
<text text-anchor="middle" x="1187" y="-349.19" font-family="Arial" font-size="14.00" fill="#cfffac">types/types.ts</text>
</g>
<!-- App.tsx&#45;&gt;types/types.ts -->
<g id="edge31" class="edge">
<title>App.tsx&#45;&gt;types/types.ts</title>
<path fill="none" stroke="#757575" d="M236.09,-968.42C265.49,-919.35 376.95,-731.23 455.5,-569.62 473.43,-532.72 458.64,-509.18 491.5,-484.62 543.27,-445.91 734.89,-497.42 780.5,-451.62 832.24,-399.65 761.9,-172.55 816.5,-123.62 863.08,-81.86 1046.49,-88.12 1098,-123.62 1167.58,-171.57 1182.19,-282.41 1185.22,-331.04"/>
<polygon fill="#757575" stroke="#757575" points="1181.72,-331.16 1185.71,-340.98 1188.71,-330.82 1181.72,-331.16"/>
</g>
<!-- navigation/navigators/TabNavigatorAdmin.tsx&#45;&gt;screens/common/Account.tsx -->
<g id="edge41" class="edge">
<title>navigation/navigators/TabNavigatorAdmin.tsx&#45;&gt;screens/common/Account.tsx</title>
<path fill="none" stroke="#757575" d="M712.08,-560.93C744.22,-566.16 782.19,-572.27 816.5,-577.62 831.23,-579.91 846.84,-582.3 862.08,-584.61"/>
<polygon fill="#757575" stroke="#757575" points="861.19,-588.01 871.6,-586.05 862.23,-581.09 861.19,-588.01"/>
</g>
<!-- screens/admin/AdminAccount.tsx -->
<g id="node41" class="node">
<title>screens/admin/AdminAccount.tsx</title>
<path fill="none" stroke="#c6c5fe" d="M1057.83,-526.49C1057.83,-526.49 856.67,-526.49 856.67,-526.49 852.71,-526.49 848.75,-522.53 848.75,-518.57 848.75,-518.57 848.75,-510.66 848.75,-510.66 848.75,-506.7 852.71,-502.74 856.67,-502.74 856.67,-502.74 1057.83,-502.74 1057.83,-502.74 1061.79,-502.74 1065.75,-506.7 1065.75,-510.66 1065.75,-510.66 1065.75,-518.57 1065.75,-518.57 1065.75,-522.53 1061.79,-526.49 1057.83,-526.49"/>
<text text-anchor="middle" x="957.25" y="-509.19" font-family="Arial" font-size="14.00" fill="#c6c5fe">screens/admin/AdminAccount.tsx</text>
</g>
<!-- navigation/navigators/TabNavigatorAdmin.tsx&#45;&gt;screens/admin/AdminAccount.tsx -->
<g id="edge37" class="edge">
<title>navigation/navigators/TabNavigatorAdmin.tsx&#45;&gt;screens/admin/AdminAccount.tsx</title>
<path fill="none" stroke="#757575" d="M753.16,-536.24C780.5,-533.33 809.69,-530.22 837.16,-527.3"/>
<polygon fill="#757575" stroke="#757575" points="837.33,-530.8 846.9,-526.26 836.59,-523.84 837.33,-530.8"/>
</g>
<!-- screens/admin/AdminHomeScreen.tsx -->
<g id="node42" class="node">
<title>screens/admin/AdminHomeScreen.tsx</title>
<path fill="none" stroke="#c6c5fe" d="M1073.21,-282.49C1073.21,-282.49 841.29,-282.49 841.29,-282.49 837.33,-282.49 833.38,-278.53 833.38,-274.57 833.38,-274.57 833.38,-266.66 833.38,-266.66 833.38,-262.7 837.33,-258.74 841.29,-258.74 841.29,-258.74 1073.21,-258.74 1073.21,-258.74 1077.17,-258.74 1081.12,-262.7 1081.12,-266.66 1081.12,-266.66 1081.12,-274.57 1081.12,-274.57 1081.12,-278.53 1077.17,-282.49 1073.21,-282.49"/>
<text text-anchor="middle" x="957.25" y="-265.19" font-family="Arial" font-size="14.00" fill="#c6c5fe">screens/admin/AdminHomeScreen.tsx</text>
</g>
<!-- navigation/navigators/TabNavigatorAdmin.tsx&#45;&gt;screens/admin/AdminHomeScreen.tsx -->
<g id="edge38" class="edge">
<title>navigation/navigators/TabNavigatorAdmin.tsx&#45;&gt;screens/admin/AdminHomeScreen.tsx</title>
<path fill="none" stroke="#757575" d="M762.65,-536.31C769.16,-532.57 775.2,-528.05 780.5,-522.62 853.06,-448.24 742.83,-364.89 816.5,-291.62 818.75,-289.38 821.12,-287.32 823.61,-285.42"/>
<polygon fill="#757575" stroke="#757575" points="825.35,-288.46 831.79,-280.04 821.51,-282.61 825.35,-288.46"/>
</g>
<!-- screens/admin/AdminUserManagement.tsx -->
<g id="node43" class="node">
<title>screens/admin/AdminUserManagement.tsx</title>
<path fill="none" stroke="#c6c5fe" d="M1087.83,-484.49C1087.83,-484.49 826.67,-484.49 826.67,-484.49 822.71,-484.49 818.75,-480.53 818.75,-476.57 818.75,-476.57 818.75,-468.66 818.75,-468.66 818.75,-464.7 822.71,-460.74 826.67,-460.74 826.67,-460.74 1087.83,-460.74 1087.83,-460.74 1091.79,-460.74 1095.75,-464.7 1095.75,-468.66 1095.75,-468.66 1095.75,-476.57 1095.75,-476.57 1095.75,-480.53 1091.79,-484.49 1087.83,-484.49"/>
<text text-anchor="middle" x="957.25" y="-467.19" font-family="Arial" font-size="14.00" fill="#c6c5fe">screens/admin/AdminUserManagement.tsx</text>
</g>
<!-- navigation/navigators/TabNavigatorAdmin.tsx&#45;&gt;screens/admin/AdminUserManagement.tsx -->
<g id="edge39" class="edge">
<title>navigation/navigators/TabNavigatorAdmin.tsx&#45;&gt;screens/admin/AdminUserManagement.tsx</title>
<path fill="none" stroke="#757575" d="M740.43,-536.31C754.24,-532.82 767.95,-528.35 780.5,-522.62 799.19,-514.07 797.69,-501.87 816.5,-493.62 820.86,-491.7 825.36,-489.96 829.96,-488.37"/>
<polygon fill="#757575" stroke="#757575" points="830.91,-491.74 839.39,-485.39 828.8,-485.06 830.91,-491.74"/>
</g>
<!-- screens/admin/SupportTickets.tsx -->
<g id="node44" class="node">
<title>screens/admin/SupportTickets.tsx</title>
<path fill="none" stroke="#c6c5fe" d="M1058.96,-568.49C1058.96,-568.49 855.54,-568.49 855.54,-568.49 851.58,-568.49 847.62,-564.53 847.62,-560.57 847.62,-560.57 847.62,-552.66 847.62,-552.66 847.62,-548.7 851.58,-544.74 855.54,-544.74 855.54,-544.74 1058.96,-544.74 1058.96,-544.74 1062.92,-544.74 1066.88,-548.7 1066.88,-552.66 1066.88,-552.66 1066.88,-560.57 1066.88,-560.57 1066.88,-564.53 1062.92,-568.49 1058.96,-568.49"/>
<text text-anchor="middle" x="957.25" y="-551.19" font-family="Arial" font-size="14.00" fill="#c6c5fe">screens/admin/SupportTickets.tsx</text>
</g>
<!-- navigation/navigators/TabNavigatorAdmin.tsx&#45;&gt;screens/admin/SupportTickets.tsx -->
<g id="edge40" class="edge">
<title>navigation/navigators/TabNavigatorAdmin.tsx&#45;&gt;screens/admin/SupportTickets.tsx</title>
<path fill="none" stroke="#757575" d="M779.82,-552.19C798.65,-552.67 817.8,-553.15 836.21,-553.61"/>
<polygon fill="#757575" stroke="#757575" points="835.96,-557.1 846.04,-553.85 836.14,-550.1 835.96,-557.1"/>
</g>
<!-- navigation/navigators/TabNavigatorLender.tsx&#45;&gt;screens/common/Account.tsx -->
<g id="edge42" class="edge">
<title>navigation/navigators/TabNavigatorLender.tsx&#45;&gt;screens/common/Account.tsx</title>
<path fill="none" stroke="#757575" d="M768.23,-616.28C795.05,-613.76 822.97,-611.14 848.84,-608.71"/>
<polygon fill="#757575" stroke="#757575" points="849.04,-612.21 858.67,-607.79 848.38,-605.24 849.04,-612.21"/>
</g>
<!-- screens/lender/Bookings.tsx -->
<g id="node45" class="node">
<title>screens/lender/Bookings.tsx</title>
<path fill="none" stroke="#c6c5fe" d="M1041.71,-652.49C1041.71,-652.49 872.79,-652.49 872.79,-652.49 868.83,-652.49 864.88,-648.53 864.88,-644.57 864.88,-644.57 864.88,-636.66 864.88,-636.66 864.88,-632.7 868.83,-628.74 872.79,-628.74 872.79,-628.74 1041.71,-628.74 1041.71,-628.74 1045.67,-628.74 1049.62,-632.7 1049.62,-636.66 1049.62,-636.66 1049.62,-644.57 1049.62,-644.57 1049.62,-648.53 1045.67,-652.49 1041.71,-652.49"/>
<text text-anchor="middle" x="957.25" y="-635.19" font-family="Arial" font-size="14.00" fill="#c6c5fe">screens/lender/Bookings.tsx</text>
</g>
<!-- navigation/navigators/TabNavigatorLender.tsx&#45;&gt;screens/lender/Bookings.tsx -->
<g id="edge43" class="edge">
<title>navigation/navigators/TabNavigatorLender.tsx&#45;&gt;screens/lender/Bookings.tsx</title>
<path fill="none" stroke="#757575" d="M780.75,-634.02C805.21,-634.94 830.18,-635.88 853.32,-636.75"/>
<polygon fill="#757575" stroke="#757575" points="852.88,-640.23 863.01,-637.11 853.14,-633.24 852.88,-640.23"/>
</g>
<!-- screens/lender/LenderHomeScreen.tsx -->
<g id="node46" class="node">
<title>screens/lender/LenderHomeScreen.tsx</title>
<path fill="none" stroke="#c6c5fe" d="M1074.71,-694.49C1074.71,-694.49 839.79,-694.49 839.79,-694.49 835.83,-694.49 831.88,-690.53 831.88,-686.57 831.88,-686.57 831.88,-678.66 831.88,-678.66 831.88,-674.7 835.83,-670.74 839.79,-670.74 839.79,-670.74 1074.71,-670.74 1074.71,-670.74 1078.67,-670.74 1082.62,-674.7 1082.62,-678.66 1082.62,-678.66 1082.62,-686.57 1082.62,-686.57 1082.62,-690.53 1078.67,-694.49 1074.71,-694.49"/>
<text text-anchor="middle" x="957.25" y="-677.19" font-family="Arial" font-size="14.00" fill="#c6c5fe">screens/lender/LenderHomeScreen.tsx</text>
</g>
<!-- navigation/navigators/TabNavigatorLender.tsx&#45;&gt;screens/lender/LenderHomeScreen.tsx -->
<g id="edge44" class="edge">
<title>navigation/navigators/TabNavigatorLender.tsx&#45;&gt;screens/lender/LenderHomeScreen.tsx</title>
<path fill="none" stroke="#757575" d="M737.02,-640.93C751.68,-643.41 766.54,-646.29 780.5,-649.62 796.91,-653.52 800.1,-657.68 816.5,-661.62 826.68,-664.06 837.35,-666.27 848.07,-668.26"/>
<polygon fill="#757575" stroke="#757575" points="847.28,-671.67 857.74,-669.99 848.51,-664.78 847.28,-671.67"/>
</g>
<!-- navigation/navigators/TabNavigatorRenter.tsx&#45;&gt;screens/common/Account.tsx -->
<g id="edge45" class="edge">
<title>navigation/navigators/TabNavigatorRenter.tsx&#45;&gt;screens/common/Account.tsx</title>
<path fill="none" stroke="#757575" d="M756.69,-658.28C764.9,-655.87 772.91,-653 780.5,-649.62 799.52,-641.12 797.5,-628.14 816.5,-619.62 826.66,-615.06 837.6,-611.45 848.74,-608.61"/>
<polygon fill="#757575" stroke="#757575" points="849.49,-612.03 858.44,-606.36 847.91,-605.21 849.49,-612.03"/>
</g>
<!-- navigation/navigators/TabNavigatorRenter.tsx&#45;&gt;screens/map/MapScreen.tsx -->
<g id="edge46" class="edge">
<title>navigation/navigators/TabNavigatorRenter.tsx&#45;&gt;screens/map/MapScreen.tsx</title>
<path fill="none" stroke="#757575" d="M706.01,-682.93C729.64,-687.2 756.24,-692.06 780.5,-696.62 796.52,-699.62 800.44,-700.85 816.5,-703.62 830.14,-705.97 844.56,-708.3 858.74,-710.51"/>
<polygon fill="#757575" stroke="#757575" points="858.14,-713.96 868.56,-712.02 859.21,-707.04 858.14,-713.96"/>
</g>
<!-- navigation/navigators/TabNavigatorRenter.tsx&#45;&gt;screens/renter/RenterHomeScreen.tsx -->
<g id="edge47" class="edge">
<title>navigation/navigators/TabNavigatorRenter.tsx&#45;&gt;screens/renter/RenterHomeScreen.tsx</title>
<path fill="none" stroke="#757575" d="M647.12,-682.66C672.77,-713.71 741.07,-799.8 780.5,-881.62 803.94,-930.24 775.55,-962.45 816.5,-997.62 818.86,-999.64 821.33,-1001.52 823.9,-1003.26"/>
<polygon fill="#757575" stroke="#757575" points="821.86,-1006.12 832.25,-1008.19 825.42,-1000.09 821.86,-1006.12"/>
</g>
<!-- screens/admin/CreatePublicSpace.tsx&#45;&gt;lib/supabase.ts -->
<g id="edge52" class="edge">
<title>screens/admin/CreatePublicSpace.tsx&#45;&gt;lib/supabase.ts</title>
<path fill="none" stroke="#757575" d="M1079.8,-778.44C1086.15,-781.02 1092.27,-784.06 1098,-787.62 1137.64,-812.2 1164.17,-861.95 1177.02,-891.04"/>
<polygon fill="#757575" stroke="#757575" points="1173.7,-892.19 1180.82,-900.04 1180.15,-889.46 1173.7,-892.19"/>
</g>
<!-- screens/admin/CreatePublicSpace.tsx&#45;&gt;types/types.ts -->
<g id="edge53" class="edge">
<title>screens/admin/CreatePublicSpace.tsx&#45;&gt;types/types.ts</title>
<path fill="none" stroke="#757575" d="M1080.09,-758.13C1086.57,-754.76 1092.61,-750.63 1098,-745.62 1152.65,-694.77 1177.51,-454.51 1184.12,-378.04"/>
<polygon fill="#757575" stroke="#757575" points="1187.59,-378.62 1184.94,-368.36 1180.61,-378.04 1187.59,-378.62"/>
</g>
<!-- screens/admin/LenderPendingSpaces.tsx&#45;&gt;lib/supabase.ts -->
<g id="edge56" class="edge">
<title>screens/admin/LenderPendingSpaces.tsx&#45;&gt;lib/supabase.ts</title>
<path fill="none" stroke="#757575" d="M769.28,-1227.1C887.33,-1224.83 1048.91,-1214.23 1098,-1174.62 1172.26,-1114.69 1184.22,-989.61 1185.88,-937.35"/>
<polygon fill="#757575" stroke="#757575" points="1189.38,-937.57 1186.08,-927.5 1182.38,-937.43 1189.38,-937.57"/>
</g>
<!-- screens/admin/ManageLenderSpaces.tsx&#45;&gt;lib/supabase.ts -->
<g id="edge57" class="edge">
<title>screens/admin/ManageLenderSpaces.tsx&#45;&gt;lib/supabase.ts</title>
<path fill="none" stroke="#757575" d="M769.34,-1185.75C886.99,-1184.13 1047.89,-1174.66 1098,-1136.62 1162.68,-1087.51 1179.88,-983.72 1184.41,-937.13"/>
<polygon fill="#757575" stroke="#757575" points="1187.88,-937.61 1185.23,-927.35 1180.91,-937.02 1187.88,-937.61"/>
</g>
<!-- screens/admin/ManagePublicSpaces.tsx&#45;&gt;lib/supabase.ts -->
<g id="edge58" class="edge">
<title>screens/admin/ManagePublicSpaces.tsx&#45;&gt;lib/supabase.ts</title>
<path fill="none" stroke="#757575" d="M1063.18,-964.31C1075.04,-961.9 1086.86,-959.03 1098,-955.62 1117.65,-949.6 1138.46,-939.84 1154.9,-931.24"/>
<polygon fill="#757575" stroke="#757575" points="1156.53,-934.34 1163.69,-926.53 1153.22,-928.17 1156.53,-934.34"/>
</g>
<!-- screens/admin/ManagePublicSpaces.tsx&#45;&gt;types/types.ts -->
<g id="edge59" class="edge">
<title>screens/admin/ManagePublicSpaces.tsx&#45;&gt;types/types.ts</title>
<path fill="none" stroke="#757575" d="M1087.35,-964.44C1091.14,-961.85 1094.71,-958.92 1098,-955.62 1180.97,-872.33 1186.17,-478.23 1186.13,-377.9"/>
<polygon fill="#757575" stroke="#757575" points="1189.63,-378.19 1186.1,-368.2 1182.63,-378.21 1189.63,-378.19"/>
</g>
<!-- screens/admin/ManageUserSuggestions.tsx&#45;&gt;lib/supabase.ts -->
<g id="edge60" class="edge">
<title>screens/admin/ManageUserSuggestions.tsx&#45;&gt;lib/supabase.ts</title>
<path fill="none" stroke="#757575" d="M1092.38,-922.25C1102.68,-921.3 1112.75,-920.37 1122.24,-919.49"/>
<polygon fill="#757575" stroke="#757575" points="1122.36,-923 1131.99,-918.59 1121.71,-916.03 1122.36,-923"/>
</g>
<!-- screens/admin/ManageUserSuggestions.tsx&#45;&gt;types/types.ts -->
<g id="edge61" class="edge">
<title>screens/admin/ManageUserSuggestions.tsx&#45;&gt;types/types.ts</title>
<path fill="none" stroke="#757575" d="M1087.3,-922.39C1091.11,-919.81 1094.69,-916.9 1098,-913.62 1175.22,-836.93 1184.69,-474.29 1185.84,-378.09"/>
<polygon fill="#757575" stroke="#757575" points="1189.34,-378.34 1185.94,-368.31 1182.34,-378.27 1189.34,-378.34"/>
</g>
<!-- screens/admin/UserSuggestedSpaces.tsx&#45;&gt;lib/supabase.ts -->
<g id="edge67" class="edge">
<title>screens/admin/UserSuggestedSpaces.tsx&#45;&gt;lib/supabase.ts</title>
<path fill="none" stroke="#757575" d="M769.85,-1144.85C886.95,-1144.29 1046.69,-1136.54 1098,-1100.62 1153.67,-1061.63 1175.13,-977.97 1182.53,-937.08"/>
<polygon fill="#757575" stroke="#757575" points="1185.96,-937.79 1184.15,-927.35 1179.06,-936.64 1185.96,-937.79"/>
</g>
<!-- screens/auth/Auth.tsx&#45;&gt;lib/supabase.ts -->
<g id="edge68" class="edge">
<title>screens/auth/Auth.tsx&#45;&gt;lib/supabase.ts</title>
<path fill="none" stroke="#757575" d="M708.92,-423.52C823.85,-413.84 1041.69,-402.82 1098,-451.62 1165.27,-509.91 1181.79,-804.06 1185.21,-890"/>
<polygon fill="#757575" stroke="#757575" points="1181.7,-889.95 1185.57,-899.81 1188.7,-889.69 1181.7,-889.95"/>
</g>
<!-- screens/auth/Auth.tsx&#45;&gt;types/types.ts -->
<g id="edge69" class="edge">
<title>screens/auth/Auth.tsx&#45;&gt;types/types.ts</title>
<path fill="none" stroke="#757575" d="M709.06,-437.12C734.93,-435.49 762.2,-428.52 780.5,-409.62 830.11,-358.35 763.3,-138.15 816.5,-90.62 863.15,-48.94 1047.25,-54.04 1098,-90.62 1176.74,-147.37 1186.09,-277.62 1186.47,-331.07"/>
<polygon fill="#757575" stroke="#757575" points="1182.97,-330.84 1186.42,-340.86 1189.97,-330.87 1182.97,-330.84"/>
</g>
<!-- screens/auth/RoleSelection.tsx&#45;&gt;lib/supabase.ts -->
<g id="edge70" class="edge">
<title>screens/auth/RoleSelection.tsx&#45;&gt;lib/supabase.ts</title>
<path fill="none" stroke="#757575" d="M737,-387.1C864.48,-386.16 1071.63,-388.32 1098,-411.62 1170.92,-476.03 1183.5,-800.24 1185.59,-890.35"/>
<polygon fill="#757575" stroke="#757575" points="1182.09,-890.24 1185.8,-900.16 1189.09,-890.09 1182.09,-890.24"/>
</g>
<!-- screens/auth/RoleSelection.tsx&#45;&gt;types/types.ts -->
<g id="edge71" class="edge">
<title>screens/auth/RoleSelection.tsx&#45;&gt;types/types.ts</title>
<path fill="none" stroke="#757575" d="M638.99,-376.4C648.06,-325.35 690.58,-128.11 816.5,-52.62 923.8,11.72 997.92,22.46 1098,-52.62 1143.66,-86.87 1173.42,-266.53 1182.81,-331.3"/>
<polygon fill="#757575" stroke="#757575" points="1179.29,-331.42 1184.16,-340.83 1186.22,-330.44 1179.29,-331.42"/>
</g>
<!-- screens/common/Account.tsx&#45;&gt;lib/supabase.ts -->
<g id="edge72" class="edge">
<title>screens/common/Account.tsx&#45;&gt;lib/supabase.ts</title>
<path fill="none" stroke="#757575" d="M1054.35,-598.53C1070.32,-602.37 1085.68,-608.92 1098,-619.62 1179.75,-690.54 1187.17,-834.02 1186.75,-890.26"/>
<polygon fill="#757575" stroke="#757575" points="1183.26,-889.87 1186.58,-899.94 1190.26,-890 1183.26,-889.87"/>
</g>
<!-- screens/common/Account.tsx&#45;&gt;types/types.ts -->
<g id="edge73" class="edge">
<title>screens/common/Account.tsx&#45;&gt;types/types.ts</title>
<path fill="none" stroke="#757575" d="M1054.34,-597.66C1070.14,-593.88 1085.42,-587.62 1098,-577.62 1161.4,-527.18 1179.26,-424.51 1184.18,-378.21"/>
<polygon fill="#757575" stroke="#757575" points="1187.65,-378.76 1185.09,-368.48 1180.68,-378.11 1187.65,-378.76"/>
</g>
<!-- screens/common/AccountDetails.tsx&#45;&gt;lib/supabase.ts -->
<g id="edge74" class="edge">
<title>screens/common/AccountDetails.tsx&#45;&gt;lib/supabase.ts</title>
<path fill="none" stroke="#757575" d="M753.99,-1065.39C870.82,-1070.11 1040.96,-1070.86 1098,-1039.62 1139.11,-1017.09 1165.24,-966.15 1177.59,-936.39"/>
<polygon fill="#757575" stroke="#757575" points="1180.81,-937.77 1181.22,-927.19 1174.3,-935.2 1180.81,-937.77"/>
</g>
<!-- screens/common/SignOut.tsx&#45;&gt;lib/supabase.ts -->
<g id="edge75" class="edge">
<title>screens/common/SignOut.tsx&#45;&gt;lib/supabase.ts</title>
<path fill="none" stroke="#757575" d="M683.92,-1687.94C776.99,-1709.26 985.67,-1740.98 1098,-1631.62 1149.06,-1581.9 1178.76,-1055.9 1184.83,-937.29"/>
<polygon fill="#757575" stroke="#757575" points="1188.32,-937.66 1185.33,-927.5 1181.33,-937.31 1188.32,-937.66"/>
</g>
<!-- screens/common/SupportTicket.tsx&#45;&gt;lib/supabase.ts -->
<g id="edge76" class="edge">
<title>screens/common/SupportTicket.tsx&#45;&gt;lib/supabase.ts</title>
<path fill="none" stroke="#757575" d="M750.51,-1638.44C870.75,-1643.03 1049.79,-1641.46 1098,-1595.62 1146.94,-1549.08 1178.11,-1052.02 1184.7,-937.19"/>
<polygon fill="#757575" stroke="#757575" points="1188.18,-937.63 1185.25,-927.45 1181.19,-937.23 1188.18,-937.63"/>
</g>
<!-- screens/common/WalletScreen.tsx&#45;&gt;lib/supabase.ts -->
<g id="edge77" class="edge">
<title>screens/common/WalletScreen.tsx&#45;&gt;lib/supabase.ts</title>
<path fill="none" stroke="#757575" d="M748.9,-1595.71C868.91,-1603.9 1048.9,-1607.71 1098,-1562.62 1145.22,-1519.24 1177.55,-1048.48 1184.57,-937.13"/>
<polygon fill="#757575" stroke="#757575" points="1188.04,-937.61 1185.17,-927.41 1181.06,-937.17 1188.04,-937.61"/>
</g>
<!-- screens/lender/CreateSpot.tsx&#45;&gt;lib/supabase.ts -->
<g id="edge81" class="edge">
<title>screens/lender/CreateSpot.tsx&#45;&gt;lib/supabase.ts</title>
<path fill="none" stroke="#757575" d="M718.45,-1318.97C835.02,-1334.73 1041.58,-1354.88 1098,-1309.62 1157.06,-1262.24 1178.99,-1015.06 1184.5,-937.16"/>
<polygon fill="#757575" stroke="#757575" points="1187.98,-937.51 1185.17,-927.29 1181,-937.03 1187.98,-937.51"/>
</g>
<!-- components/Validator.tsx -->
<g id="node36" class="node">
<title>components/Validator.tsx</title>
<path fill="none" stroke="#cfffac" d="M1032.71,-1300.49C1032.71,-1300.49 881.79,-1300.49 881.79,-1300.49 877.83,-1300.49 873.88,-1296.53 873.88,-1292.57 873.88,-1292.57 873.88,-1284.66 873.88,-1284.66 873.88,-1280.7 877.83,-1276.74 881.79,-1276.74 881.79,-1276.74 1032.71,-1276.74 1032.71,-1276.74 1036.67,-1276.74 1040.62,-1280.7 1040.62,-1284.66 1040.62,-1284.66 1040.62,-1292.57 1040.62,-1292.57 1040.62,-1296.53 1036.67,-1300.49 1032.71,-1300.49"/>
<text text-anchor="middle" x="957.25" y="-1283.19" font-family="Arial" font-size="14.00" fill="#cfffac">components/Validator.tsx</text>
</g>
<!-- screens/lender/CreateSpot.tsx&#45;&gt;components/Validator.tsx -->
<g id="edge80" class="edge">
<title>screens/lender/CreateSpot.tsx&#45;&gt;components/Validator.tsx</title>
<path fill="none" stroke="#757575" d="M734.96,-1301.09C775.41,-1298.81 822.12,-1296.18 862.16,-1293.92"/>
<polygon fill="#757575" stroke="#757575" points="862.24,-1297.42 872.03,-1293.36 861.85,-1290.43 862.24,-1297.42"/>
</g>
<!-- screens/lender/ParkingSpotDetails.tsx&#45;&gt;lib/supabase.ts -->
<g id="edge85" class="edge">
<title>screens/lender/ParkingSpotDetails.tsx&#45;&gt;lib/supabase.ts</title>
<path fill="none" stroke="#757575" d="M1079.46,-903.79C1094.17,-905.15 1108.71,-906.49 1122.1,-907.72"/>
<polygon fill="#757575" stroke="#757575" points="1121.77,-911.21 1132.04,-908.64 1122.41,-904.24 1121.77,-911.21"/>
</g>
<!-- screens/lender/ParkingSpotDetails.tsx&#45;&gt;types/types.ts -->
<g id="edge86" class="edge">
<title>screens/lender/ParkingSpotDetails.tsx&#45;&gt;types/types.ts</title>
<path fill="none" stroke="#757575" d="M1079.44,-884.98C1086.21,-881.42 1092.48,-877.03 1098,-871.62 1169.55,-801.44 1183.12,-469.64 1185.52,-378.07"/>
<polygon fill="#757575" stroke="#757575" points="1189.01,-378.39 1185.75,-368.31 1182.01,-378.22 1189.01,-378.39"/>
</g>
<!-- screens/lender/PendingSpots.tsx&#45;&gt;lib/supabase.ts -->
<g id="edge87" class="edge">
<title>screens/lender/PendingSpots.tsx&#45;&gt;lib/supabase.ts</title>
<path fill="none" stroke="#757575" d="M722.38,-1547.96C840.13,-1562.91 1044.01,-1580.69 1098,-1533.62 1144.06,-1493.45 1177.1,-1045.55 1184.45,-937.14"/>
<polygon fill="#757575" stroke="#757575" points="1187.93,-937.63 1185.11,-927.42 1180.94,-937.16 1187.93,-937.63"/>
</g>
<!-- screens/lender/VerificationStatus.tsx&#45;&gt;lib/supabase.ts -->
<g id="edge88" class="edge">
<title>screens/lender/VerificationStatus.tsx&#45;&gt;lib/supabase.ts</title>
<path fill="none" stroke="#757575" d="M689.23,-1488.93C796.82,-1512.93 1038.1,-1559.29 1098,-1507.62 1186,-1431.69 1187.46,-1037.44 1186.38,-936.95"/>
<polygon fill="#757575" stroke="#757575" points="1189.88,-937.18 1186.25,-927.22 1182.88,-937.27 1189.88,-937.18"/>
</g>
<!-- screens/map/MapScreen.tsx&#45;&gt;lib/supabase.ts -->
<g id="edge89" class="edge">
<title>screens/map/MapScreen.tsx&#45;&gt;lib/supabase.ts</title>
<path fill="none" stroke="#757575" d="M1051.67,-726.3C1068.18,-729.92 1084.41,-735.94 1098,-745.62 1147.64,-780.96 1171.5,-853.01 1180.91,-890.22"/>
<polygon fill="#757575" stroke="#757575" points="1177.5,-891 1183.21,-899.92 1184.31,-889.38 1177.5,-891"/>
</g>
<!-- screens/map/MapScreen.tsx&#45;&gt;types/types.ts -->
<g id="edge90" class="edge">
<title>screens/map/MapScreen.tsx&#45;&gt;types/types.ts</title>
<path fill="none" stroke="#757575" d="M1051.86,-725.82C1068.83,-722.04 1085.19,-715.23 1098,-703.62 1147.13,-659.07 1175.29,-448.47 1183.47,-377.8"/>
<polygon fill="#757575" stroke="#757575" points="1186.92,-378.48 1184.56,-368.16 1179.96,-377.7 1186.92,-378.48"/>
</g>
<!-- screens/renter/AddVehicle.tsx&#45;&gt;lib/supabase.ts -->
<g id="edge91" class="edge">
<title>screens/renter/AddVehicle.tsx&#45;&gt;lib/supabase.ts</title>
<path fill="none" stroke="#757575" d="M1054.95,-815.22C1069.84,-818.47 1084.67,-823.08 1098,-829.62 1127.99,-844.31 1154.51,-872.9 1170.4,-892.61"/>
<polygon fill="#757575" stroke="#757575" points="1167.47,-894.55 1176.38,-900.28 1172.99,-890.25 1167.47,-894.55"/>
</g>
<!-- screens/renter/AddVehicle.tsx&#45;&gt;types/types.ts -->
<g id="edge92" class="edge">
<title>screens/renter/AddVehicle.tsx&#45;&gt;types/types.ts</title>
<path fill="none" stroke="#757575" d="M1054.81,-809.69C1070.83,-805.77 1086.08,-798.94 1098,-787.62 1158.25,-730.39 1179.55,-459.92 1184.67,-378.11"/>
<polygon fill="#757575" stroke="#757575" points="1188.15,-378.56 1185.26,-368.37 1181.16,-378.14 1188.15,-378.56"/>
</g>
<!-- screens/renter/BookingScreen.tsx&#45;&gt;lib/supabase.ts -->
<g id="edge93" class="edge">
<title>screens/renter/BookingScreen.tsx&#45;&gt;lib/supabase.ts</title>
<path fill="none" stroke="#757575" d="M1066.7,-230.28C1078.41,-234.49 1089.23,-240.69 1098,-249.62 1144.01,-296.43 1177.32,-777.23 1184.54,-890.02"/>
<polygon fill="#757575" stroke="#757575" points="1181.03,-890.11 1185.16,-899.87 1188.02,-889.67 1181.03,-890.11"/>
</g>
<!-- screens/renter/BookingScreen.tsx&#45;&gt;types/types.ts -->
<g id="edge94" class="edge">
<title>screens/renter/BookingScreen.tsx&#45;&gt;types/types.ts</title>
<path fill="none" stroke="#757575" d="M1066.94,-236.89C1077.81,-240.06 1088.37,-244.21 1098,-249.62 1132.69,-269.08 1159.62,-307.93 1174.11,-332.52"/>
<polygon fill="#757575" stroke="#757575" points="1170.99,-334.11 1178.97,-341.08 1177.08,-330.66 1170.99,-334.11"/>
</g>
<!-- screens/renter/DocumentUpload.tsx&#45;&gt;lib/supabase.ts -->
<g id="edge96" class="edge">
<title>screens/renter/DocumentUpload.tsx&#45;&gt;lib/supabase.ts</title>
<path fill="none" stroke="#757575" d="M752.37,-1408.02C872.06,-1413.09 1048.55,-1412.38 1098,-1368.62 1163.61,-1310.54 1181.28,-1021.89 1185.09,-937.08"/>
<polygon fill="#757575" stroke="#757575" points="1188.58,-937.34 1185.51,-927.21 1181.59,-937.05 1188.58,-937.34"/>
</g>
<!-- screens/renter/PreviousBookings.tsx&#45;&gt;lib/supabase.ts -->
<g id="edge97" class="edge">
<title>screens/renter/PreviousBookings.tsx&#45;&gt;lib/supabase.ts</title>
<path fill="none" stroke="#757575" d="M753.95,-1366.8C873.31,-1375.52 1047.95,-1379.99 1098,-1337.62 1160.09,-1285.05 1180.09,-1018.33 1184.79,-937.12"/>
<polygon fill="#757575" stroke="#757575" points="1188.28,-937.42 1185.34,-927.25 1181.29,-937.04 1188.28,-937.42"/>
</g>
<!-- screens/renter/RenterHomeScreen.tsx&#45;&gt;lib/supabase.ts -->
<g id="edge98" class="edge">
<title>screens/renter/RenterHomeScreen.tsx&#45;&gt;lib/supabase.ts</title>
<path fill="none" stroke="#757575" d="M1076.16,-1006.34C1083.71,-1003.9 1091.06,-1001.02 1098,-997.62 1127.99,-982.92 1154.51,-954.33 1170.4,-934.62"/>
<polygon fill="#757575" stroke="#757575" points="1172.99,-936.98 1176.38,-926.95 1167.47,-932.68 1172.99,-936.98"/>
</g>
<!-- screens/renter/SuggestParkingSpace.tsx&#45;&gt;lib/supabase.ts -->
<g id="edge99" class="edge">
<title>screens/renter/SuggestParkingSpace.tsx&#45;&gt;lib/supabase.ts</title>
<path fill="none" stroke="#757575" d="M1063.18,-862.92C1075.04,-865.33 1086.86,-868.2 1098,-871.62 1117.65,-877.63 1138.46,-887.39 1154.9,-895.99"/>
<polygon fill="#757575" stroke="#757575" points="1153.22,-899.06 1163.69,-900.7 1156.53,-892.89 1153.22,-899.06"/>
</g>
<!-- screens/renter/SuggestParkingSpace.tsx&#45;&gt;types/types.ts -->
<g id="edge100" class="edge">
<title>screens/renter/SuggestParkingSpace.tsx&#45;&gt;types/types.ts</title>
<path fill="none" stroke="#757575" d="M1087.19,-838.27C1091.02,-835.73 1094.65,-832.85 1098,-829.62 1163.89,-765.93 1181.41,-464.88 1185.13,-378.09"/>
<polygon fill="#757575" stroke="#757575" points="1188.62,-378.33 1185.53,-368.19 1181.63,-378.04 1188.62,-378.33"/>
</g>
<!-- screens/renter/UpcomingBookings.tsx&#45;&gt;lib/supabase.ts -->
<g id="edge101" class="edge">
<title>screens/renter/UpcomingBookings.tsx&#45;&gt;lib/supabase.ts</title>
<path fill="none" stroke="#757575" d="M758.3,-1104.57C875.61,-1106.18 1043.41,-1101.96 1098,-1067.62 1145.56,-1037.69 1170.03,-972.18 1180.16,-937.02"/>
<polygon fill="#757575" stroke="#757575" points="1183.53,-937.98 1182.77,-927.42 1176.77,-936.15 1183.53,-937.98"/>
</g>
<!-- android/app/build/intermediates/assets/debug/EXDevMenuApp.android.js -->
<g id="node33" class="node">
<title>android/app/build/intermediates/assets/debug/EXDevMenuApp.android.js</title>
<path fill="none" stroke="#cfffac" d="M447.58,-1034.49C447.58,-1034.49 7.92,-1034.49 7.92,-1034.49 3.96,-1034.49 0,-1030.53 0,-1026.57 0,-1026.57 0,-1018.66 0,-1018.66 0,-1014.7 3.96,-1010.74 7.92,-1010.74 7.92,-1010.74 447.58,-1010.74 447.58,-1010.74 451.54,-1010.74 455.5,-1014.7 455.5,-1018.66 455.5,-1018.66 455.5,-1026.57 455.5,-1026.57 455.5,-1030.53 451.54,-1034.49 447.58,-1034.49"/>
<text text-anchor="middle" x="227.75" y="-1017.19" font-family="Arial" font-size="14.00" fill="#cfffac">android/app/build/intermediates/assets/debug/EXDevMenuApp.android.js</text>
</g>
<!-- app.config.js -->
<g id="node34" class="node">
<title>app.config.js</title>
<path fill="none" stroke="#cfffac" d="M265.71,-1076.49C265.71,-1076.49 189.79,-1076.49 189.79,-1076.49 185.83,-1076.49 181.88,-1072.53 181.88,-1068.57 181.88,-1068.57 181.88,-1060.66 181.88,-1060.66 181.88,-1056.7 185.83,-1052.74 189.79,-1052.74 189.79,-1052.74 265.71,-1052.74 265.71,-1052.74 269.67,-1052.74 273.62,-1056.7 273.62,-1060.66 273.62,-1060.66 273.62,-1068.57 273.62,-1068.57 273.62,-1072.53 269.67,-1076.49 265.71,-1076.49"/>
<text text-anchor="middle" x="227.75" y="-1059.19" font-family="Arial" font-size="14.00" fill="#cfffac">app.config.js</text>
</g>
<!-- babel.config.js -->
<g id="node35" class="node">
<title>babel.config.js</title>
<path fill="none" stroke="#cfffac" d="M270.96,-1118.49C270.96,-1118.49 184.54,-1118.49 184.54,-1118.49 180.58,-1118.49 176.62,-1114.53 176.62,-1110.57 176.62,-1110.57 176.62,-1102.66 176.62,-1102.66 176.62,-1098.7 180.58,-1094.74 184.54,-1094.74 184.54,-1094.74 270.96,-1094.74 270.96,-1094.74 274.92,-1094.74 278.88,-1098.7 278.88,-1102.66 278.88,-1102.66 278.88,-1110.57 278.88,-1110.57 278.88,-1114.53 274.92,-1118.49 270.96,-1118.49"/>
<text text-anchor="middle" x="227.75" y="-1101.19" font-family="Arial" font-size="14.00" fill="#cfffac">babel.config.js</text>
</g>
<!-- lib/location.ts -->
<g id="node37" class="node">
<title>lib/location.ts</title>
<path fill="none" stroke="#cfffac" d="M266.83,-1160.49C266.83,-1160.49 188.67,-1160.49 188.67,-1160.49 184.71,-1160.49 180.75,-1156.53 180.75,-1152.57 180.75,-1152.57 180.75,-1144.66 180.75,-1144.66 180.75,-1140.7 184.71,-1136.74 188.67,-1136.74 188.67,-1136.74 266.83,-1136.74 266.83,-1136.74 270.79,-1136.74 274.75,-1140.7 274.75,-1144.66 274.75,-1144.66 274.75,-1152.57 274.75,-1152.57 274.75,-1156.53 270.79,-1160.49 266.83,-1160.49"/>
<text text-anchor="middle" x="227.75" y="-1143.19" font-family="Arial" font-size="14.00" fill="#cfffac">lib/location.ts</text>
</g>
<!-- metro.config.js -->
<g id="node38" class="node">
<title>metro.config.js</title>
<path fill="none" stroke="#cfffac" d="M272.08,-1202.49C272.08,-1202.49 183.42,-1202.49 183.42,-1202.49 179.46,-1202.49 175.5,-1198.53 175.5,-1194.57 175.5,-1194.57 175.5,-1186.66 175.5,-1186.66 175.5,-1182.7 179.46,-1178.74 183.42,-1178.74 183.42,-1178.74 272.08,-1178.74 272.08,-1178.74 276.04,-1178.74 280,-1182.7 280,-1186.66 280,-1186.66 280,-1194.57 280,-1194.57 280,-1198.53 276.04,-1202.49 272.08,-1202.49"/>
<text text-anchor="middle" x="227.75" y="-1185.19" font-family="Arial" font-size="14.00" fill="#cfffac">metro.config.js</text>
</g>
<!-- nativewind&#45;env.d.ts -->
<g id="node39" class="node">
<title>nativewind&#45;env.d.ts</title>
<path fill="none" stroke="#cfffac" d="M285.21,-1244.49C285.21,-1244.49 170.29,-1244.49 170.29,-1244.49 166.33,-1244.49 162.38,-1240.53 162.38,-1236.57 162.38,-1236.57 162.38,-1228.66 162.38,-1228.66 162.38,-1224.7 166.33,-1220.74 170.29,-1220.74 170.29,-1220.74 285.21,-1220.74 285.21,-1220.74 289.17,-1220.74 293.12,-1224.7 293.12,-1228.66 293.12,-1228.66 293.12,-1236.57 293.12,-1236.57 293.12,-1240.53 289.17,-1244.49 285.21,-1244.49"/>
<text text-anchor="middle" x="227.75" y="-1227.19" font-family="Arial" font-size="14.00" fill="#cfffac">nativewind&#45;env.d.ts</text>
</g>
<!-- navigation/RootNavigator.tsx -->
<g id="node40" class="node">
<title>navigation/RootNavigator.tsx</title>
<path fill="none" stroke="#c6c5fe" d="M313.71,-560.49C313.71,-560.49 141.79,-560.49 141.79,-560.49 137.83,-560.49 133.88,-556.53 133.88,-552.57 133.88,-552.57 133.88,-544.66 133.88,-544.66 133.88,-540.7 137.83,-536.74 141.79,-536.74 141.79,-536.74 313.71,-536.74 313.71,-536.74 317.67,-536.74 321.62,-540.7 321.62,-544.66 321.62,-544.66 321.62,-552.57 321.62,-552.57 321.62,-556.53 317.67,-560.49 313.71,-560.49"/>
<text text-anchor="middle" x="227.75" y="-543.19" font-family="Arial" font-size="14.00" fill="#c6c5fe">navigation/RootNavigator.tsx</text>
</g>
<!-- navigation/RootNavigator.tsx&#45;&gt;navigation/navigators/TabNavigatorAdmin.tsx -->
<g id="edge32" class="edge">
<title>navigation/RootNavigator.tsx&#45;&gt;navigation/navigators/TabNavigatorAdmin.tsx</title>
<path fill="none" stroke="#757575" d="M321.95,-548.62C369.08,-548.62 427.51,-548.62 481.08,-548.62"/>
<polygon fill="#757575" stroke="#757575" points="480.92,-552.12 490.92,-548.62 480.92,-545.12 480.92,-552.12"/>
</g>
<!-- navigation/RootNavigator.tsx&#45;&gt;navigation/navigators/TabNavigatorLender.tsx -->
<g id="edge33" class="edge">
<title>navigation/RootNavigator.tsx&#45;&gt;navigation/navigators/TabNavigatorLender.tsx</title>
<path fill="none" stroke="#757575" d="M291.34,-560.94C364.1,-575.27 484.06,-598.89 561.27,-614.1"/>
<polygon fill="#757575" stroke="#757575" points="560.37,-617.49 570.86,-615.98 561.72,-610.62 560.37,-617.49"/>
</g>
<!-- navigation/RootNavigator.tsx&#45;&gt;navigation/navigators/TabNavigatorRenter.tsx -->
<g id="edge34" class="edge">
<title>navigation/RootNavigator.tsx&#45;&gt;navigation/navigators/TabNavigatorRenter.tsx</title>
<path fill="none" stroke="#757575" d="M254.96,-560.94C301.52,-582.32 402.15,-626.21 491.5,-649.62 500.79,-652.05 510.5,-654.22 520.29,-656.16"/>
<polygon fill="#757575" stroke="#757575" points="519.41,-659.56 529.88,-657.97 520.71,-652.68 519.41,-659.56"/>
</g>
<!-- navigation/RootNavigator.tsx&#45;&gt;screens/auth/Auth.tsx -->
<g id="edge35" class="edge">
<title>navigation/RootNavigator.tsx&#45;&gt;screens/auth/Auth.tsx</title>
<path fill="none" stroke="#757575" d="M259.01,-536.26C307.4,-516.91 405.51,-479.31 491.5,-456.62 510.83,-451.51 531.88,-447.09 551.76,-443.4"/>
<polygon fill="#757575" stroke="#757575" points="552.27,-446.87 561.49,-441.65 551.03,-439.98 552.27,-446.87"/>
</g>
<!-- navigation/RootNavigator.tsx&#45;&gt;screens/auth/RoleSelection.tsx -->
<g id="edge36" class="edge">
<title>navigation/RootNavigator.tsx&#45;&gt;screens/auth/RoleSelection.tsx</title>
<path fill="none" stroke="#757575" d="M246.58,-536.38C287.68,-508.82 393.15,-441.77 491.5,-409.62 501.91,-406.21 512.93,-403.36 524.04,-400.97"/>
<polygon fill="#757575" stroke="#757575" points="524.57,-404.43 533.69,-399.03 523.19,-397.57 524.57,-404.43"/>
</g>
<!-- screens/admin/AdminAccount.tsx&#45;&gt;lib/supabase.ts -->
<g id="edge48" class="edge">
<title>screens/admin/AdminAccount.tsx&#45;&gt;lib/supabase.ts</title>
<path fill="none" stroke="#757575" d="M1066.23,-517.24C1077.95,-521.3 1088.9,-527.21 1098,-535.62 1150.88,-584.44 1176.79,-815.03 1183.91,-890"/>
<polygon fill="#757575" stroke="#757575" points="1180.42,-890.24 1184.82,-899.88 1187.39,-889.6 1180.42,-890.24"/>
</g>
<!-- screens/admin/AdminHomeScreen.tsx&#45;&gt;lib/supabase.ts -->
<g id="edge49" class="edge">
<title>screens/admin/AdminHomeScreen.tsx&#45;&gt;lib/supabase.ts</title>
<path fill="none" stroke="#757575" d="M1081.53,-279.13C1087.52,-282.53 1093.08,-286.65 1098,-291.62 1141.16,-335.15 1176.39,-782.04 1184.33,-890.16"/>
<polygon fill="#757575" stroke="#757575" points="1180.81,-890.13 1185.03,-899.85 1187.8,-889.62 1180.81,-890.13"/>
</g>
<!-- screens/admin/AdminHomeScreen.tsx&#45;&gt;types/types.ts -->
<g id="edge50" class="edge">
<title>screens/admin/AdminHomeScreen.tsx&#45;&gt;types/types.ts</title>
<path fill="none" stroke="#757575" d="M1071.62,-282.94C1080.69,-285.34 1089.59,-288.2 1098,-291.62 1123.12,-301.8 1147.88,-320.52 1164.7,-334.91"/>
<polygon fill="#757575" stroke="#757575" points="1162.23,-337.4 1172.05,-341.38 1166.86,-332.15 1162.23,-337.4"/>
</g>
<!-- screens/admin/AdminUserManagement.tsx&#45;&gt;lib/supabase.ts -->
<g id="edge51" class="edge">
<title>screens/admin/AdminUserManagement.tsx&#45;&gt;lib/supabase.ts</title>
<path fill="none" stroke="#757575" d="M1086.78,-484.86C1090.76,-487.42 1094.52,-490.33 1098,-493.62 1156.49,-548.84 1178.92,-809.75 1184.51,-890.04"/>
<polygon fill="#757575" stroke="#757575" points="1181,-890.07 1185.16,-899.81 1187.98,-889.6 1181,-890.07"/>
</g>
<!-- screens/admin/SupportTickets.tsx&#45;&gt;lib/supabase.ts -->
<g id="edge66" class="edge">
<title>screens/admin/SupportTickets.tsx&#45;&gt;lib/supabase.ts</title>
<path fill="none" stroke="#757575" d="M1067.06,-559.84C1078.42,-563.85 1089.06,-569.58 1098,-577.62 1145.3,-620.1 1174.38,-820.58 1183.17,-889.94"/>
<polygon fill="#757575" stroke="#757575" points="1179.69,-890.3 1184.39,-899.79 1186.63,-889.44 1179.69,-890.3"/>
</g>
<!-- screens/lender/Bookings.tsx&#45;&gt;lib/supabase.ts -->
<g id="edge79" class="edge">
<title>screens/lender/Bookings.tsx&#45;&gt;lib/supabase.ts</title>
<path fill="none" stroke="#757575" d="M1049.98,-640.1C1067.39,-643.75 1084.4,-650.34 1098,-661.62 1168.89,-720.36 1182.75,-839.69 1185.4,-890.19"/>
<polygon fill="#757575" stroke="#757575" points="1181.9,-890.11 1185.8,-899.96 1188.89,-889.83 1181.9,-890.11"/>
</g>
<!-- screens/lender/LenderHomeScreen.tsx&#45;&gt;lib/supabase.ts -->
<g id="edge84" class="edge">
<title>screens/lender/LenderHomeScreen.tsx&#45;&gt;lib/supabase.ts</title>
<path fill="none" stroke="#757575" d="M1083.1,-694.18C1088.35,-696.87 1093.35,-700 1098,-703.62 1158.17,-750.46 1177.63,-845.95 1183.56,-890.18"/>
<polygon fill="#757575" stroke="#757575" points="1180.07,-890.43 1184.75,-899.94 1187.02,-889.59 1180.07,-890.43"/>
</g>
<!-- screens/admin/EditParkingSpaces.tsx -->
<g id="node47" class="node">
<title>screens/admin/EditParkingSpaces.tsx</title>
<path fill="none" stroke="#c6c5fe" d="M1070.96,-366.49C1070.96,-366.49 843.54,-366.49 843.54,-366.49 839.58,-366.49 835.62,-362.53 835.62,-358.57 835.62,-358.57 835.62,-350.66 835.62,-350.66 835.62,-346.7 839.58,-342.74 843.54,-342.74 843.54,-342.74 1070.96,-342.74 1070.96,-342.74 1074.92,-342.74 1078.88,-346.7 1078.88,-350.66 1078.88,-350.66 1078.88,-358.57 1078.88,-358.57 1078.88,-362.53 1074.92,-366.49 1070.96,-366.49"/>
<text text-anchor="middle" x="957.25" y="-349.19" font-family="Arial" font-size="14.00" fill="#c6c5fe">screens/admin/EditParkingSpaces.tsx</text>
</g>
<!-- screens/admin/EditParkingSpaces.tsx&#45;&gt;lib/supabase.ts -->
<g id="edge54" class="edge">
<title>screens/admin/EditParkingSpaces.tsx&#45;&gt;lib/supabase.ts</title>
<path fill="none" stroke="#757575" d="M1079.3,-366.54C1086.14,-370.34 1092.47,-374.97 1098,-380.62 1170.41,-454.51 1183.37,-796.91 1185.57,-890.13"/>
<polygon fill="#757575" stroke="#757575" points="1182.07,-890.14 1185.78,-900.06 1189.07,-889.99 1182.07,-890.14"/>
</g>
<!-- screens/admin/EditParkingSpaces.tsx&#45;&gt;types/types.ts -->
<g id="edge55" class="edge">
<title>screens/admin/EditParkingSpaces.tsx&#45;&gt;types/types.ts</title>
<path fill="none" stroke="#757575" d="M1079.13,-354.62C1095.42,-354.62 1111.53,-354.62 1126.1,-354.62"/>
<polygon fill="#757575" stroke="#757575" points="1125.92,-358.12 1135.92,-354.62 1125.92,-351.12 1125.92,-358.12"/>
</g>
<!-- screens/admin/PendingSpaces.tsx -->
<g id="node48" class="node">
<title>screens/admin/PendingSpaces.tsx</title>
<path fill="none" stroke="#c6c5fe" d="M1061.21,-156.49C1061.21,-156.49 853.29,-156.49 853.29,-156.49 849.33,-156.49 845.38,-152.53 845.38,-148.57 845.38,-148.57 845.38,-140.66 845.38,-140.66 845.38,-136.7 849.33,-132.74 853.29,-132.74 853.29,-132.74 1061.21,-132.74 1061.21,-132.74 1065.17,-132.74 1069.12,-136.7 1069.12,-140.66 1069.12,-140.66 1069.12,-148.57 1069.12,-148.57 1069.12,-152.53 1065.17,-156.49 1061.21,-156.49"/>
<text text-anchor="middle" x="957.25" y="-139.19" font-family="Arial" font-size="14.00" fill="#c6c5fe">screens/admin/PendingSpaces.tsx</text>
</g>
<!-- screens/admin/PendingSpaces.tsx&#45;&gt;lib/supabase.ts -->
<g id="edge62" class="edge">
<title>screens/admin/PendingSpaces.tsx&#45;&gt;lib/supabase.ts</title>
<path fill="none" stroke="#757575" d="M1069.56,-147.19C1080.19,-151.38 1089.98,-157.33 1098,-165.62 1111,-179.04 1170.98,-765.18 1183.65,-890.28"/>
<polygon fill="#757575" stroke="#757575" points="1180.14,-890.39 1184.63,-899.99 1187.1,-889.69 1180.14,-890.39"/>
</g>
<!-- screens/admin/PendingSpaces.tsx&#45;&gt;types/types.ts -->
<g id="edge63" class="edge">
<title>screens/admin/PendingSpaces.tsx&#45;&gt;types/types.ts</title>
<path fill="none" stroke="#757575" d="M1069.6,-150.79C1079.78,-154.4 1089.45,-159.22 1098,-165.62 1152.9,-206.67 1174.74,-290.43 1182.38,-331.24"/>
<polygon fill="#757575" stroke="#757575" points="1178.9,-331.68 1184.06,-340.93 1185.8,-330.48 1178.9,-331.68"/>
</g>
<!-- screens/admin/SpaceDetails.tsx -->
<g id="node49" class="node">
<title>screens/admin/SpaceDetails.tsx</title>
<path fill="none" stroke="#c6c5fe" d="M1053.71,-324.49C1053.71,-324.49 860.79,-324.49 860.79,-324.49 856.83,-324.49 852.88,-320.53 852.88,-316.57 852.88,-316.57 852.88,-308.66 852.88,-308.66 852.88,-304.7 856.83,-300.74 860.79,-300.74 860.79,-300.74 1053.71,-300.74 1053.71,-300.74 1057.67,-300.74 1061.62,-304.7 1061.62,-308.66 1061.62,-308.66 1061.62,-316.57 1061.62,-316.57 1061.62,-320.53 1057.67,-324.49 1053.71,-324.49"/>
<text text-anchor="middle" x="957.25" y="-307.19" font-family="Arial" font-size="14.00" fill="#c6c5fe">screens/admin/SpaceDetails.tsx</text>
</g>
<!-- screens/admin/SpaceDetails.tsx&#45;&gt;lib/supabase.ts -->
<g id="edge64" class="edge">
<title>screens/admin/SpaceDetails.tsx&#45;&gt;lib/supabase.ts</title>
<path fill="none" stroke="#757575" d="M1062.01,-312.93C1075.47,-317.1 1088.02,-323.65 1098,-333.62 1178.09,-413.59 1185.44,-791.88 1185.99,-890.21"/>
<polygon fill="#757575" stroke="#757575" points="1182.49,-889.98 1186.02,-899.97 1189.49,-889.95 1182.49,-889.98"/>
</g>
<!-- screens/admin/SpaceDetails.tsx&#45;&gt;types/types.ts -->
<g id="edge65" class="edge">
<title>screens/admin/SpaceDetails.tsx&#45;&gt;types/types.ts</title>
<path fill="none" stroke="#757575" d="M1047.91,-324.93C1064.6,-327.55 1081.86,-330.48 1098,-333.62 1107.31,-335.42 1117.12,-337.54 1126.68,-339.73"/>
<polygon fill="#757575" stroke="#757575" points="1125.74,-343.11 1136.27,-341.97 1127.33,-336.29 1125.74,-343.11"/>
</g>
<!-- screens/lender/ApprovalReview.tsx -->
<g id="node50" class="node">
<title>screens/lender/ApprovalReview.tsx</title>
<path fill="none" stroke="#c6c5fe" d="M1062.33,-1498.49C1062.33,-1498.49 852.17,-1498.49 852.17,-1498.49 848.21,-1498.49 844.25,-1494.53 844.25,-1490.57 844.25,-1490.57 844.25,-1482.66 844.25,-1482.66 844.25,-1478.7 848.21,-1474.74 852.17,-1474.74 852.17,-1474.74 1062.33,-1474.74 1062.33,-1474.74 1066.29,-1474.74 1070.25,-1478.7 1070.25,-1482.66 1070.25,-1482.66 1070.25,-1490.57 1070.25,-1490.57 1070.25,-1494.53 1066.29,-1498.49 1062.33,-1498.49"/>
<text text-anchor="middle" x="957.25" y="-1481.19" font-family="Arial" font-size="14.00" fill="#c6c5fe">screens/lender/ApprovalReview.tsx</text>
</g>
<!-- screens/lender/ApprovalReview.tsx&#45;&gt;lib/supabase.ts -->
<g id="edge78" class="edge">
<title>screens/lender/ApprovalReview.tsx&#45;&gt;lib/supabase.ts</title>
<path fill="none" stroke="#757575" d="M1070.58,-1483.17C1080.76,-1479.08 1090.16,-1473.39 1098,-1465.62 1174.28,-1390.02 1184.44,-1032.54 1185.79,-937.09"/>
<polygon fill="#757575" stroke="#757575" points="1189.29,-937.2 1185.91,-927.16 1182.29,-937.11 1189.29,-937.2"/>
</g>
<!-- screens/lender/EditLenderSpace.tsx -->
<g id="node51" class="node">
<title>screens/lender/EditLenderSpace.tsx</title>
<path fill="none" stroke="#c6c5fe" d="M1065.71,-198.49C1065.71,-198.49 848.79,-198.49 848.79,-198.49 844.83,-198.49 840.88,-194.53 840.88,-190.57 840.88,-190.57 840.88,-182.66 840.88,-182.66 840.88,-178.7 844.83,-174.74 848.79,-174.74 848.79,-174.74 1065.71,-174.74 1065.71,-174.74 1069.67,-174.74 1073.62,-178.7 1073.62,-182.66 1073.62,-182.66 1073.62,-190.57 1073.62,-190.57 1073.62,-194.53 1069.67,-198.49 1065.71,-198.49"/>
<text text-anchor="middle" x="957.25" y="-181.19" font-family="Arial" font-size="14.00" fill="#c6c5fe">screens/lender/EditLenderSpace.tsx</text>
</g>
<!-- screens/lender/EditLenderSpace.tsx&#45;&gt;lib/supabase.ts -->
<g id="edge82" class="edge">
<title>screens/lender/EditLenderSpace.tsx&#45;&gt;lib/supabase.ts</title>
<path fill="none" stroke="#757575" d="M1073.87,-191.08C1082.82,-195.11 1091.06,-200.5 1098,-207.62 1122.49,-232.73 1172.83,-769.45 1183.84,-889.81"/>
<polygon fill="#757575" stroke="#757575" points="1180.36,-890.11 1184.75,-899.75 1187.33,-889.48 1180.36,-890.11"/>
</g>
<!-- screens/lender/EditLenderSpace.tsx&#45;&gt;types/types.ts -->
<g id="edge83" class="edge">
<title>screens/lender/EditLenderSpace.tsx&#45;&gt;types/types.ts</title>
<path fill="none" stroke="#757575" d="M1073.88,-195.46C1082.4,-198.64 1090.56,-202.63 1098,-207.62 1142.68,-237.55 1168.14,-298.52 1179.25,-331.76"/>
<polygon fill="#757575" stroke="#757575" points="1175.88,-332.73 1182.24,-341.2 1182.55,-330.61 1175.88,-332.73"/>
</g>
<!-- screens/renter/CreateReview.tsx -->
<g id="node52" class="node">
<title>screens/renter/CreateReview.tsx</title>
<path fill="none" stroke="#c6c5fe" d="M1054.83,-1456.49C1054.83,-1456.49 859.67,-1456.49 859.67,-1456.49 855.71,-1456.49 851.75,-1452.53 851.75,-1448.57 851.75,-1448.57 851.75,-1440.66 851.75,-1440.66 851.75,-1436.7 855.71,-1432.74 859.67,-1432.74 859.67,-1432.74 1054.83,-1432.74 1054.83,-1432.74 1058.79,-1432.74 1062.75,-1436.7 1062.75,-1440.66 1062.75,-1440.66 1062.75,-1448.57 1062.75,-1448.57 1062.75,-1452.53 1058.79,-1456.49 1054.83,-1456.49"/>
<text text-anchor="middle" x="957.25" y="-1439.19" font-family="Arial" font-size="14.00" fill="#c6c5fe">screens/renter/CreateReview.tsx</text>
</g>
<!-- screens/renter/CreateReview.tsx&#45;&gt;lib/supabase.ts -->
<g id="edge95" class="edge">
<title>screens/renter/CreateReview.tsx&#45;&gt;lib/supabase.ts</title>
<path fill="none" stroke="#757575" d="M1063.07,-1439.8C1076.13,-1435.22 1088.28,-1428.44 1098,-1418.62 1166.65,-1349.18 1182.27,-1027.71 1185.33,-937.32"/>
<polygon fill="#757575" stroke="#757575" points="1188.82,-937.55 1185.64,-927.44 1181.83,-937.33 1188.82,-937.55"/>
</g>
<!-- tailwind.config.js -->
<g id="node53" class="node">
<title>tailwind.config.js</title>
<path fill="none" stroke="#cfffac" d="M276.96,-1286.49C276.96,-1286.49 178.54,-1286.49 178.54,-1286.49 174.58,-1286.49 170.62,-1282.53 170.62,-1278.57 170.62,-1278.57 170.62,-1270.66 170.62,-1270.66 170.62,-1266.7 174.58,-1262.74 178.54,-1262.74 178.54,-1262.74 276.96,-1262.74 276.96,-1262.74 280.92,-1262.74 284.88,-1266.7 284.88,-1270.66 284.88,-1270.66 284.88,-1278.57 284.88,-1278.57 284.88,-1282.53 280.92,-1286.49 276.96,-1286.49"/>
<text text-anchor="middle" x="227.75" y="-1269.19" font-family="Arial" font-size="14.00" fill="#cfffac">tailwind.config.js</text>
</g>
<!-- types/env.d.ts -->
<g id="node54" class="node">
<title>types/env.d.ts</title>
<path fill="none" stroke="#cfffac" d="M269.08,-1328.49C269.08,-1328.49 186.42,-1328.49 186.42,-1328.49 182.46,-1328.49 178.5,-1324.53 178.5,-1320.57 178.5,-1320.57 178.5,-1312.66 178.5,-1312.66 178.5,-1308.7 182.46,-1304.74 186.42,-1304.74 186.42,-1304.74 269.08,-1304.74 269.08,-1304.74 273.04,-1304.74 277,-1308.7 277,-1312.66 277,-1312.66 277,-1320.57 277,-1320.57 277,-1324.53 273.04,-1328.49 269.08,-1328.49"/>
<text text-anchor="middle" x="227.75" y="-1311.19" font-family="Arial" font-size="14.00" fill="#cfffac">types/env.d.ts</text>
</g>
<!-- types/userRoleTypes.ts -->
<g id="node55" class="node">
<title>types/userRoleTypes.ts</title>
<path fill="none" stroke="#cfffac" d="M297.96,-1370.49C297.96,-1370.49 157.54,-1370.49 157.54,-1370.49 153.58,-1370.49 149.62,-1366.53 149.62,-1362.57 149.62,-1362.57 149.62,-1354.66 149.62,-1354.66 149.62,-1350.7 153.58,-1346.74 157.54,-1346.74 157.54,-1346.74 297.96,-1346.74 297.96,-1346.74 301.92,-1346.74 305.88,-1350.7 305.88,-1354.66 305.88,-1354.66 305.88,-1362.57 305.88,-1362.57 305.88,-1366.53 301.92,-1370.49 297.96,-1370.49"/>
<text text-anchor="middle" x="227.75" y="-1353.19" font-family="Arial" font-size="14.00" fill="#cfffac">types/userRoleTypes.ts</text>
</g>
</g>
</svg>
